<svg width="1440" height="248" viewBox="0 0 1440 248" fill="none" xmlns="http://www.w3.org/2000/svg">
<g clip-path="url(#clip0)">
<rect width="1440" height="248" fill="#2B2B2B"/>
<path d="M680.19 81.4297C557.79 155.83 622.857 -41.2369 670.69 -149.07C717.857 -163.57 820.39 -194.77 853.19 -203.57C894.19 -214.57 833.19 -11.5703 680.19 81.4297Z" stroke="#FF4646" stroke-width="18"/>
<path d="M999.33 146.513C1257.88 135.56 1081.58 294.03 961.108 374.634C864.97 365.123 656.06 344.136 589.522 336.278C506.349 326.455 676.137 160.204 999.33 146.513Z" stroke="#FF4646" stroke-width="18"/>
<path d="M-117.523 64.9519L-113.385 105.592L-58.1174 234.572L45.514 317.733L192.851 276.618L44.2711 208.335L180.082 50.1025L14.5288 72.8134L-26.9873 -27.889L-117.523 64.9519Z" stroke="#FF4646" stroke-width="20"/>
<path d="M1528.96 -12.0228L1441.46 -55.5225L1394.48 -63.9727L1315.26 -113.703L1215.58 -72.9841L1325.02 -37.3081L1249.46 63.9774L1363.46 49.9775L1394.48 115.978L1528.96 -12.0228Z" stroke="#FF4646" stroke-width="20"/>
</g>
<defs>
<clipPath id="clip0">
<rect width="1461" height="248" fill="white"/>
</clipPath>
</defs>
</svg>
