<svg width="177" height="188" viewBox="0 0 177 188" fill="none" xmlns="http://www.w3.org/2000/svg">
<path d="M2 42.6243L75.3583 62.0523L75.3583 164.805L2 145.377L2 42.6243Z" fill="#D4DDD8"/>
<path d="M24.298 64.4254L49.1786 71.0147L49.1775 80.0811L24.2969 73.4917L24.298 64.4254Z" fill="#434242"/>
<path d="M148.715 42.6243L75.3566 62.0523L75.3566 164.805L148.715 145.377L148.715 42.6243Z" fill="white"/>
<path d="M2.00391 42.6191L75.3521 27.2L148.714 42.6243L75.3436 62.0524L2.00391 42.6191Z" fill="white"/>
<path d="M29.457 35.8343L98.9543 55.694V90.5209C98.9543 91.4529 100.117 91.8782 100.718 91.1662L112.929 76.7086C113.272 76.3029 113.872 76.2358 114.296 76.5557L123.95 83.8423C124.608 84.3395 125.552 83.8695 125.552 83.0441V48.7863L54.7678 29.79L29.457 35.8343Z" fill="#D4DDD8"/>
<path d="M3.48798 145.888L74.8462 164.787C75.1818 164.875 75.5347 164.875 75.8703 164.787L147.229 145.888C148.106 145.656 148.717 144.862 148.717 143.955V43.4715C148.717 42.5393 148.073 41.7308 147.164 41.5222L75.8057 25.1437C75.5112 25.0761 75.2053 25.0761 74.9108 25.1437L3.55258 41.5222C2.64401 41.7308 2 42.5393 2 43.4715V143.955C2 144.862 2.61085 145.656 3.48798 145.888Z" stroke="#434242" stroke-width="3" stroke-linecap="round" stroke-linejoin="round"/>
<ellipse cx="150.865" cy="142.472" rx="25.3107" ry="25.4722" fill="#D4DDD8"/>
<path d="M147.108 147.76L141.853 142.471L140.102 144.234L147.108 151.286L162.123 136.175L160.372 134.412L147.108 147.76Z" fill="#434242"/>
<path fill-rule="evenodd" clip-rule="evenodd" d="M52.4276 102.531C52.5398 102.456 52.6677 102.407 52.8017 102.388C52.9356 102.369 53.0721 102.381 53.2007 102.423C53.3566 102.462 53.5056 102.525 53.6427 102.609C53.7863 102.699 53.9167 102.81 54.0301 102.936C54.1435 103.06 54.2383 103.199 54.3115 103.35C54.3769 103.49 54.4199 103.64 54.4389 103.793C54.4502 103.92 54.4303 104.048 54.3808 104.165C54.3314 104.282 54.254 104.386 54.1554 104.466C54.043 104.541 53.9154 104.59 53.7817 104.61C53.648 104.629 53.5117 104.618 53.3826 104.579C53.0637 104.491 52.777 104.312 52.5571 104.065C52.3344 103.83 52.1892 103.533 52.141 103.213C52.1287 103.084 52.1484 102.955 52.1984 102.836C52.2484 102.717 52.3272 102.612 52.4276 102.531ZM52.679 103.981C52.8627 104.189 53.1039 104.339 53.3724 104.411C53.4901 104.445 53.6132 104.454 53.7346 104.439C53.8416 104.428 53.9435 104.388 54.03 104.324C54.113 104.262 54.1775 104.178 54.2168 104.082C54.2572 103.976 54.273 103.862 54.2631 103.749C54.2346 103.468 54.1163 103.204 53.9257 102.996C53.7397 102.78 53.4938 102.625 53.2193 102.551C53.1095 102.516 52.993 102.507 52.8791 102.525C52.7653 102.542 52.6571 102.586 52.5631 102.653C52.4783 102.724 52.413 102.816 52.3731 102.919C52.3333 103.022 52.3202 103.134 52.3352 103.243C52.3672 103.522 52.4879 103.784 52.6797 103.989L52.679 103.981ZM53.7441 103.578C53.7291 103.61 53.7066 103.638 53.6784 103.66C53.6503 103.681 53.6173 103.695 53.5824 103.701L53.8616 104.182L53.6298 104.124L53.3736 103.684L53.0738 103.607L53.1066 103.996L52.9026 103.942L52.8086 102.828L53.368 102.968C53.459 102.994 53.5415 103.044 53.607 103.112C53.6764 103.177 53.7278 103.259 53.7561 103.35C53.7819 103.425 53.7775 103.507 53.7441 103.578ZM53.027 103.052L53.0597 103.44L53.3874 103.522C53.4095 103.53 53.4331 103.533 53.4566 103.531C53.48 103.529 53.5028 103.522 53.5233 103.511C53.5401 103.497 53.5531 103.478 53.561 103.458C53.5688 103.437 53.5713 103.415 53.5681 103.393C53.5613 103.338 53.5378 103.285 53.5007 103.243C53.4658 103.201 53.4214 103.169 53.3714 103.148L53.027 103.052ZM40.3426 105.687L49.4083 121.024L56.0223 122.695L46.9604 107.358L46.3994 100.709L39.7815 99.0383L40.3426 105.687ZM39.2073 107.574L33.531 117.013L40.1449 118.685L42.9852 113.967L39.2073 107.574ZM31.4713 107.808L37.1476 98.3689L30.5337 96.6977L27.7002 101.403L31.4713 107.808ZM30.336 109.695L30.8984 116.359L24.2848 114.692L23.722 108.024L14.6641 92.6865L21.278 94.3577L30.336 109.695Z" fill="#434242"/>
<path fill-rule="evenodd" clip-rule="evenodd" d="M131.046 93.8886C131.263 93.6345 131.549 93.45 131.87 93.3583C132.01 93.3179 132.156 93.3038 132.302 93.3169C132.429 93.3323 132.55 93.3784 132.655 93.4512C132.756 93.526 132.834 93.6266 132.883 93.7424C132.932 93.8689 132.954 94.0047 132.946 94.1403C132.902 94.4627 132.762 94.7644 132.545 95.0066C132.327 95.2587 132.041 95.4428 131.721 95.5369C131.592 95.5798 131.455 95.593 131.319 95.5756C131.184 95.5582 131.055 95.5106 130.941 95.4364C130.839 95.3572 130.759 95.2544 130.706 95.1368C130.654 95.0193 130.631 94.8907 130.64 94.7624C130.681 94.4358 130.823 94.1301 131.046 93.8886ZM131.081 95.2806C131.177 95.3438 131.286 95.3842 131.399 95.3988C131.513 95.4134 131.628 95.4017 131.737 95.3647C131.869 95.3307 131.995 95.2755 132.11 95.2013C132.231 95.1228 132.341 95.0284 132.436 94.9204C132.533 94.8066 132.612 94.6794 132.671 94.5428C132.727 94.4209 132.762 94.2899 132.772 94.156C132.786 94.0457 132.772 93.9335 132.731 93.8302C132.69 93.7268 132.623 93.6356 132.537 93.5652C132.44 93.4994 132.33 93.4568 132.214 93.4407C132.099 93.4246 131.981 93.4355 131.87 93.4724C131.596 93.5538 131.353 93.7138 131.169 93.9324C130.98 94.1452 130.863 94.4133 130.838 94.6971C130.824 94.8071 130.84 94.9188 130.882 95.021C130.925 95.1233 130.994 95.2128 131.081 95.2806ZM132.255 94.2861C132.211 94.373 132.146 94.4482 132.067 94.5055L132.283 94.8588L132.051 94.9216L131.852 94.5971L131.552 94.675L131.525 95.0668L131.32 95.1237L131.397 93.9991L131.958 93.8485C132.033 93.8239 132.115 93.8294 132.186 93.864C132.217 93.881 132.245 93.9051 132.265 93.9346C132.286 93.964 132.299 93.9979 132.304 94.0335C132.317 94.1208 132.299 94.2097 132.255 94.2861ZM131.59 94.1147L131.563 94.5065L131.892 94.4187C131.947 94.4006 131.997 94.3688 132.036 94.3262C132.073 94.283 132.096 94.2296 132.102 94.1732C132.104 94.1513 132.102 94.129 132.093 94.1084C132.085 94.0879 132.072 94.0698 132.055 94.0559C132.034 94.0445 132.011 94.0378 131.987 94.0362C131.963 94.0346 131.94 94.0381 131.917 94.0465L131.59 94.1147ZM117.944 103.71L124.994 115.013L131.632 113.226L124.585 101.919L125.044 95.1952L118.403 96.9857L117.944 103.71ZM116.464 106.309L109.061 119.31L115.698 117.52L119.401 111.021L116.464 106.309ZM108.358 110.692L115.761 97.6911L109.122 99.4936L105.423 105.992L108.358 110.692ZM106.877 113.292L106.418 120.016L99.7811 121.806L100.239 115.094L93.1967 103.792L99.8341 102.001L106.877 113.292Z" fill="#434242"/>
</svg>
