<svg width="177" height="188" viewBox="0 0 177 188" fill="none" xmlns="http://www.w3.org/2000/svg">
<path d="M2 42.6243L75.3583 62.0523L75.3583 164.805L2 145.377L2 42.6243Z" fill="#C4FFDB"/>
<path d="M24.3 64.4254L49.1806 71.0147L49.1795 80.0811L24.2988 73.4917L24.3 64.4254Z" fill="#434242"/>
<path d="M148.717 42.6243L75.3585 62.0523L75.3585 164.805L148.717 145.377L148.717 42.6243Z" fill="white"/>
<path d="M2.00391 42.6191L75.3521 27.2L148.714 42.6243L75.3436 62.0524L2.00391 42.6191Z" fill="white"/>
<path d="M29.459 35.8343L98.9563 55.694V90.5209C98.9563 91.4529 100.119 91.8782 100.72 91.1662L112.931 76.7086C113.274 76.3029 113.874 76.2358 114.298 76.5557L123.952 83.8423C124.61 84.3395 125.554 83.8695 125.554 83.0441V48.7863L54.7697 29.79L29.459 35.8343Z" fill="#C4FFDB"/>
<path d="M3.48798 145.888L74.8462 164.787C75.1818 164.875 75.5347 164.875 75.8703 164.787L147.229 145.888C148.106 145.656 148.717 144.862 148.717 143.955V43.4715C148.717 42.5393 148.073 41.7308 147.164 41.5222L75.8057 25.1437C75.5112 25.0761 75.2053 25.0761 74.9108 25.1437L3.55258 41.5222C2.64401 41.7308 2 42.5393 2 43.4715V143.955C2 144.862 2.61085 145.656 3.48798 145.888Z" stroke="#434242" stroke-width="3" stroke-linecap="round" stroke-linejoin="round"/>
<ellipse cx="150.867" cy="142.472" rx="25.3107" ry="25.4722" fill="#C4FFDB"/>
<path d="M147.108 147.76L141.853 142.471L140.102 144.234L147.108 151.286L162.123 136.175L160.372 134.412L147.108 147.76Z" fill="#434242"/>
</svg>
