<svg width="135" height="70" viewBox="0 0 135 70" fill="none" xmlns="http://www.w3.org/2000/svg">
<g clip-path="url(#clip0)">
<path fill-rule="evenodd" clip-rule="evenodd" d="M128.371 1.0845C129.102 0.375552 130.086 -0.0147402 131.105 -0.000605602C131.61 -0.00760157 132.111 0.0846477 132.579 0.270874C133.048 0.4571 133.476 0.733656 133.837 1.08475C134.199 1.43584 134.488 1.85458 134.687 2.31708C134.887 2.77957 134.993 3.27674 135 3.78021C134.967 4.78977 134.542 5.74706 133.815 6.44966C133.088 7.15226 132.115 7.54509 131.103 7.54509C130.091 7.54509 129.118 7.15226 128.391 6.44966C127.664 5.74706 127.239 4.78977 127.206 3.78021C127.221 2.76304 127.64 1.79345 128.371 1.0845ZM128.817 6.04082C129.428 6.63634 130.251 6.96632 131.105 6.9587C131.531 6.96678 131.954 6.89086 132.35 6.73529C132.746 6.57973 133.107 6.34759 133.413 6.05222C133.719 5.75685 133.963 5.40407 134.132 5.01416C134.301 4.62425 134.391 4.2049 134.396 3.78021C134.396 2.91294 134.051 2.08118 133.437 1.46793C132.822 0.854673 131.988 0.51015 131.119 0.51015C130.25 0.51015 129.417 0.854673 128.802 1.46793C128.188 2.08118 127.842 2.91294 127.842 3.78021C127.855 4.63261 128.206 5.4453 128.817 6.04082ZM132.644 3.64282C132.516 3.90322 132.302 4.11233 132.039 4.23595L132.875 5.697H132.08L131.325 4.35397H130.306V5.697H129.6V1.79409H131.505C131.796 1.79698 132.077 1.89831 132.303 2.08151C132.528 2.2647 132.685 2.51892 132.747 2.80255C132.809 3.08618 132.773 3.38243 132.644 3.64282ZM130.306 2.40863V3.73537H131.415C131.591 3.73537 131.76 3.66548 131.885 3.54107C132.01 3.41667 132.08 3.24793 132.08 3.072C132.08 2.89606 132.01 2.72733 131.885 2.60292C131.76 2.47852 131.591 2.40863 131.415 2.40863H130.306ZM85.5004 23.3316L112.504 69.9997H135L108.001 23.3316V-0.000343605H85.5004V23.3316ZM81.0018 31.1089L58.5011 69.9996H81.0018L92.2501 50.5542L81.0018 31.1089ZM54.0026 38.8904L76.4992 -0.000343605H54.0026L42.7502 19.445L54.0026 38.8904ZM49.4999 46.6677V69.9997H26.9992V46.6677L0 -0.000343605H22.5007L49.4999 46.6677Z" fill="#434242"/>
</g>
<defs>
<clipPath id="clip0">
<rect width="135" height="70" fill="white"/>
</clipPath>
</defs>
</svg>
