<svg width="157" height="23" viewBox="0 0 157 23" fill="none" xmlns="http://www.w3.org/2000/svg">
<g clip-path="url(#clip0)">
<path d="M154.449 5.77717e-05C153.778 -0.00447809 153.132 0.258245 152.654 0.730505C152.176 1.20276 151.904 1.84593 151.899 2.5187C151.899 3.19648 152.168 3.84649 152.646 4.32575C153.124 4.80501 153.773 5.07426 154.449 5.07426C155.126 5.07426 155.775 4.80501 156.253 4.32575C156.731 3.84649 157 3.19648 157 2.5187C156.995 1.84593 156.723 1.20276 156.245 0.730505C155.767 0.258245 155.121 -0.00447809 154.449 5.77717e-05ZM154.449 4.63981C154.17 4.64168 153.892 4.5883 153.633 4.48272C153.374 4.37713 153.138 4.22141 152.938 4.02445C152.739 3.82748 152.581 3.59313 152.472 3.33477C152.363 3.07642 152.306 2.79911 152.304 2.5187C152.304 1.94862 152.53 1.40188 152.933 0.998769C153.335 0.595659 153.881 0.369194 154.449 0.369194C155.018 0.369194 155.564 0.595659 155.966 0.998769C156.369 1.40188 156.595 1.94862 156.595 2.5187C156.593 2.79911 156.536 3.07642 156.427 3.33477C156.318 3.59313 156.16 3.82748 155.961 4.02445C155.761 4.22141 155.525 4.37713 155.266 4.48272C155.007 4.5883 154.729 4.64168 154.449 4.63981Z" fill="white"/>
<path d="M155.062 2.81693C155.235 2.73842 155.376 2.6026 155.461 2.43229C155.546 2.26198 155.57 2.06756 155.528 1.88169C155.487 1.69582 155.383 1.52983 155.234 1.41161C155.085 1.29339 154.9 1.23014 154.71 1.23248H153.463V3.75113H153.928V2.89928H154.586L155.087 3.75113H155.609L155.062 2.81693ZM153.928 2.49039V1.63853H154.654C154.714 1.63159 154.774 1.63742 154.832 1.65566C154.889 1.67389 154.942 1.70411 154.987 1.74433C155.033 1.78456 155.069 1.83387 155.093 1.88904C155.118 1.94422 155.131 2.004 155.131 2.06446C155.131 2.12492 155.118 2.1847 155.093 2.23988C155.069 2.29505 155.033 2.34436 154.987 2.38459C154.942 2.42481 154.889 2.45503 154.832 2.47326C154.774 2.4915 154.714 2.49733 154.654 2.49039H153.928Z" fill="white"/>
<path d="M149.348 5.46605V0H131.605V23H149.419V17.534H137.982V14.1975H148.393V8.80247H137.982V5.46605H149.348Z" fill="white"/>
<path d="M123.418 23H130.046L121.21 0H113.357L104.532 23H111.158L112.507 19.2377H122.083L123.418 23ZM114.321 14.1265L117.195 6.07086H117.384L120.255 14.1294L114.321 14.1265Z" fill="white"/>
<path d="M102.084 11.1905C102.949 10.2263 103.517 9.0316 103.718 7.75095C103.919 6.4703 103.746 5.15861 103.219 3.97462C102.692 2.79062 101.833 1.78508 100.748 1.07968C99.6623 0.374278 98.3959 -0.000742609 97.102 1.10401e-06H83.074V23H97.7339C99.1027 22.9996 100.439 22.579 101.562 21.7947C102.684 21.0104 103.541 19.9002 104.015 18.6135C104.488 17.3268 104.557 15.9255 104.212 14.5983C103.867 13.2711 103.124 12.0818 102.084 11.1905ZM89.4503 5.39506H95.6141C95.8574 5.38541 96.1001 5.42508 96.3277 5.5117C96.5553 5.59832 96.7631 5.7301 96.9386 5.89914C97.1142 6.06819 97.2538 6.27101 97.3492 6.49544C97.4446 6.71988 97.4938 6.96131 97.4938 7.20525C97.4938 7.44919 97.4446 7.69061 97.3492 7.91505C97.2538 8.13949 97.1142 8.34231 96.9386 8.51135C96.7631 8.6804 96.5553 8.81218 96.3277 8.8988C96.1001 8.98542 95.8574 9.02509 95.6141 9.01543H89.4503V5.39506ZM96.2178 17.6049H89.4503V13.9136H96.2178C96.7063 13.9136 97.1748 14.108 97.5203 14.4542C97.8657 14.8003 98.0598 15.2698 98.0598 15.7593C98.0598 16.2488 97.8657 16.7182 97.5203 17.0644C97.1748 17.4105 96.7063 17.6049 96.2178 17.6049Z" fill="white"/>
<path d="M73.7929 8.66049H67.5243C67.1109 8.66049 66.7144 8.49596 66.4221 8.20307C66.1298 7.91019 65.9656 7.51296 65.9656 7.09877C65.9656 6.68457 66.1298 6.28734 66.4221 5.99446C66.7144 5.70158 67.1109 5.53704 67.5243 5.53704H78.3272L80.4527 0H66.6797C65.5301 0.00155734 64.3981 0.283414 63.3814 0.821243C62.3648 1.35907 61.494 2.13672 60.8443 3.08705C60.1946 4.03739 59.7855 5.13187 59.6522 6.27602C59.519 7.42018 59.6656 8.57964 60.0795 9.65432C60.5947 10.992 61.5021 12.1421 62.6823 12.9531C63.8624 13.764 65.26 14.1979 66.6911 14.1975H72.9541C73.3863 14.1975 73.8007 14.3695 74.1063 14.6757C74.4119 14.9819 74.5836 15.3972 74.5836 15.8302C74.5836 16.2633 74.4119 16.6786 74.1063 16.9848C73.8007 17.2909 73.3863 17.463 72.9541 17.463H63.0693L65.1976 23H73.7929C75.6907 23 77.5108 22.2446 78.8528 20.9C80.1947 19.5554 80.9486 17.7318 80.9486 15.8302C80.9486 13.9287 80.1947 12.1051 78.8528 10.7605C77.5108 9.41588 75.6907 8.66049 73.7929 8.66049Z" fill="white"/>
<path d="M55.8286 23H62.4572L53.6295 0H45.788L40.361 14.1265H40.1711L34.7441 0H26.9026L18.0664 23H24.6921L26.0326 19.2377H35.6113L36.9518 23H43.5775L44.9208 19.2377H54.4966L55.8286 23ZM27.8548 14.1265L30.7256 6.07086H30.9183L33.7891 14.1265H27.8548ZM46.7402 14.1265L49.6138 6.07086H49.8036L52.6744 14.1265H46.7402Z" fill="white"/>
<path d="M24.4711 0L17.1312 12.7409L13.688 6.41444L17.1794 0H24.4711Z" fill="white"/>
<path d="M15.6377 15.3333V23H8.83621V15.3333L0 0H7.29455L15.6377 15.3333Z" fill="white"/>
</g>
<defs>
<clipPath id="clip0">
<rect width="157" height="23" fill="white"/>
</clipPath>
</defs>
</svg>
