<svg width="161" height="24" viewBox="0 0 161 24" fill="none" xmlns="http://www.w3.org/2000/svg">
<g clip-path="url(#clip0)">
<path d="M145.429 4.8V9.6H159.652V14.4H145.429V19.2H160.363V24H139.74V0H160.363V4.8H145.429Z" fill="black"/>
<path d="M127.295 0H121.606L110.939 24H116.628L118.584 19.2H130.318L132.273 24H137.963L127.295 0ZM120.539 14.4L124.451 4.8L128.362 14.4H120.539Z" fill="black"/>
<path d="M108.152 11.6991C109.144 10.7393 109.82 9.51742 110.093 8.18779C110.365 6.85815 110.223 5.4804 109.684 4.22854C109.146 2.97669 108.234 1.90688 107.065 1.15427C105.896 0.401655 104.522 -1.36349e-05 103.116 3.4715e-10H88.1821V24H103.827C105.314 24.0001 106.763 23.551 107.971 22.7159C109.179 21.8808 110.085 20.7017 110.563 19.3443C111.04 17.9869 111.064 16.5194 110.632 15.1481C110.199 13.7768 109.332 12.5706 108.152 11.6991ZM93.8713 4.8H102.049C102.71 4.8 103.343 5.05286 103.809 5.50295C104.276 5.95304 104.538 6.56348 104.538 7.2C104.538 7.83652 104.276 8.44696 103.809 8.89705C103.343 9.34714 102.71 9.6 102.049 9.6H93.8713V4.8ZM102.761 19.2H93.8713V14.4H102.761C103.421 14.4 104.054 14.6529 104.521 15.1029C104.987 15.553 105.25 16.1635 105.25 16.8C105.25 17.4365 104.987 18.047 104.521 18.4971C104.054 18.9471 103.421 19.2 102.761 19.2Z" fill="black"/>
<path d="M86.0487 16.8C86.0485 18.7095 85.2617 20.5407 83.8614 21.8909C82.4611 23.2412 80.562 23.9998 78.5817 24H68.9812L66.8477 19.2H77.8705C78.5306 19.2 79.1637 18.9471 79.6305 18.4971C80.0973 18.047 80.3595 17.4365 80.3595 16.8C80.3595 16.1635 80.0973 15.553 79.6305 15.1029C79.1637 14.6529 78.5306 14.4 77.8705 14.4H70.759C68.7787 14.4 66.8794 13.6414 65.479 12.2912C64.0787 10.9409 63.292 9.10956 63.292 7.2C63.292 5.29044 64.0787 3.4591 65.479 2.10884C66.8794 0.758574 68.7787 0 70.759 0H85.3376L83.2041 4.8H71.4702C70.8101 4.8 70.177 5.05286 69.7102 5.50295C69.2434 5.95304 68.9812 6.56348 68.9812 7.2C68.9812 7.83652 69.2434 8.44696 69.7102 8.89705C70.177 9.34714 70.8101 9.6 71.4702 9.6H78.5817C79.5624 9.5996 80.5335 9.78556 81.4397 10.1472C82.3458 10.5089 83.1691 11.0393 83.8626 11.7079C84.556 12.3766 85.1061 13.1705 85.4812 14.0442C85.8563 14.9179 86.0491 15.8544 86.0487 16.8Z" fill="black"/>
<path d="M55.4691 0H49.7799L41.9573 17.6L34.1347 0H28.4455L17.7783 24H23.4675L25.4232 19.2H37.1571L39.1127 24H44.8019L46.7576 19.2H58.4915L60.4471 24H66.1363L55.4691 0ZM27.3788 14.4L31.2901 4.8L35.2014 14.4H27.3788ZM48.7132 14.4L52.6245 4.8L56.5358 14.4H48.7132Z" fill="black"/>
<path d="M15.6452 14.4L15.646 24H9.95685L9.95606 14.4L0 0H6.40032L15.6452 14.4Z" fill="black"/>
<path d="M25.6023 0L17.1207 12.2667L14.2231 7.7539L19.202 0H25.6023Z" fill="black"/>
</g>
<defs>
<clipPath id="clip0">
<rect width="160.364" height="24" fill="white"/>
</clipPath>
</defs>
</svg>
