<svg width="161" height="24" viewBox="0 0 161 24" fill="none" xmlns="http://www.w3.org/2000/svg">
<g clip-path="url(#clip0)">
<path d="M145.427 4.8V9.6H159.65V14.4H145.427V19.2H160.361V24H139.738V0H160.361V4.8H145.427Z" fill="white"/>
<path d="M127.294 0H121.605L110.938 24H116.627L118.582 19.2H130.316L132.272 24H137.961L127.294 0ZM120.538 14.4L124.449 4.8L128.361 14.4H120.538Z" fill="white"/>
<path d="M108.153 11.6991C109.146 10.7393 109.821 9.51742 110.094 8.18779C110.367 6.85815 110.225 5.4804 109.686 4.22854C109.147 2.97669 108.236 1.90688 107.067 1.15427C105.897 0.401655 104.523 -1.36349e-05 103.118 3.4715e-10H88.1836V24H103.829C105.315 24.0001 106.764 23.551 107.972 22.7159C109.181 21.8808 110.087 20.7017 110.564 19.3443C111.041 17.9869 111.065 16.5194 110.633 15.1481C110.201 13.7768 109.333 12.5706 108.153 11.6991ZM93.8728 4.8H102.051C102.711 4.8 103.344 5.05286 103.811 5.50295C104.278 5.95304 104.54 6.56348 104.54 7.2C104.54 7.83652 104.278 8.44696 103.811 8.89705C103.344 9.34714 102.711 9.6 102.051 9.6H93.8728V4.8ZM102.762 19.2H93.8728V14.4H102.762C103.422 14.4 104.055 14.6529 104.522 15.1029C104.989 15.553 105.251 16.1635 105.251 16.8C105.251 17.4365 104.989 18.047 104.522 18.4971C104.055 18.9471 103.422 19.2 102.762 19.2Z" fill="white"/>
<path d="M86.0487 16.8C86.0485 18.7095 85.2617 20.5407 83.8614 21.8909C82.4611 23.2412 80.562 23.9998 78.5817 24H68.9812L66.8477 19.2H77.8705C78.5306 19.2 79.1637 18.9471 79.6305 18.4971C80.0973 18.047 80.3595 17.4365 80.3595 16.8C80.3595 16.1635 80.0973 15.553 79.6305 15.1029C79.1637 14.6529 78.5306 14.4 77.8705 14.4H70.759C68.7787 14.4 66.8794 13.6414 65.479 12.2912C64.0787 10.9409 63.292 9.10956 63.292 7.2C63.292 5.29044 64.0787 3.4591 65.479 2.10884C66.8794 0.758574 68.7787 0 70.759 0H85.3376L83.2041 4.8H71.4702C70.8101 4.8 70.177 5.05286 69.7102 5.50295C69.2434 5.95304 68.9812 6.56348 68.9812 7.2C68.9812 7.83652 69.2434 8.44696 69.7102 8.89705C70.177 9.34714 70.8101 9.6 71.4702 9.6H78.5817C79.5624 9.5996 80.5335 9.78556 81.4397 10.1472C82.3458 10.5089 83.1691 11.0393 83.8626 11.7079C84.556 12.3766 85.1061 13.1705 85.4812 14.0442C85.8563 14.9179 86.0491 15.8544 86.0487 16.8Z" fill="white"/>
<path d="M55.4681 0H49.779L41.9563 17.6L34.1337 0H28.4445L17.7773 24H23.4665L25.4222 19.2H37.1561L39.1118 24H44.8009L46.7566 19.2H58.4905L60.4462 24H66.1353L55.4681 0ZM27.3778 14.4L31.2891 4.8L35.2004 14.4H27.3778ZM48.7122 14.4L52.6235 4.8L56.5349 14.4H48.7122Z" fill="white"/>
<path d="M15.6452 14.4L15.646 24H9.95685L9.95606 14.4L0 0H6.40032L15.6452 14.4Z" fill="white"/>
<path d="M25.6023 0L17.1207 12.2667L14.2231 7.7539L19.202 0H25.6023Z" fill="white"/>
</g>
<defs>
<clipPath id="clip0">
<rect width="160.364" height="24" fill="white"/>
</clipPath>
</defs>
</svg>
