<svg width="135" height="113" viewBox="0 0 135 113" fill="none" xmlns="http://www.w3.org/2000/svg">
<path fill-rule="evenodd" clip-rule="evenodd" d="M135 0L0 21.4101V84.5V112.5L13.716 82.3247L135 63.0899V0Z" fill="#434242"/>
<path d="M43.128 52.0128L42.0944 44.09L39.7793 50.3924L38.515 50.5573L34.6604 45.0597L35.694 52.9826L33.3677 53.2861L31.8064 41.3175L34.3012 40.992L38.7297 47.3405L41.415 40.064L43.893 39.7408L45.4543 51.7094L43.128 52.0128ZM46.6636 42.5681L48.9056 42.2757L49.2706 45.0739L50.7541 44.8804C51.2373 44.8174 51.69 44.8269 52.1122 44.909C52.5441 44.9784 52.9286 45.1225 53.2658 45.3414C53.6015 45.549 53.8785 45.8329 54.0969 46.193C54.3251 46.5404 54.4707 46.9558 54.5338 47.439C54.5983 47.9335 54.5712 48.3828 54.4524 48.7868C54.3323 49.1797 54.1373 49.5251 53.8676 49.8232C53.6091 50.1198 53.2864 50.3619 52.8994 50.5495C52.5222 50.7245 52.0976 50.8427 51.6256 50.9043L47.8159 51.4013L46.6636 42.5681ZM54.7382 41.5148L56.9633 41.2245L58.1156 50.0577L55.8905 50.3479L54.7382 41.5148ZM51.1587 49.1651C51.5408 49.1152 51.831 48.9745 52.0294 48.7429C52.2263 48.5001 52.2984 48.1764 52.2456 47.7718C52.1928 47.3672 52.0345 47.0736 51.7706 46.8908C51.5053 46.6968 51.1929 46.6233 50.8332 46.6702L49.5015 46.8439L49.827 49.3388L51.1587 49.1651ZM62.7786 41.4431C63.167 41.0038 63.608 40.6606 64.1015 40.4133C64.595 40.1661 65.1115 40.0073 65.6509 39.9369C66.0442 39.8856 66.4217 39.8878 66.7833 39.9435C67.1434 39.9879 67.4651 40.0888 67.7485 40.2461C68.0432 40.402 68.2826 40.6165 68.4668 40.8896C68.6608 41.1501 68.782 41.4657 68.8303 41.8366C68.8919 42.3086 68.8169 42.7412 68.6054 43.1346C68.4036 43.5152 68.0782 43.7805 67.6291 43.9305C68.2858 43.9706 68.8035 44.1717 69.1822 44.5337C69.5594 44.8845 69.7869 45.3578 69.8646 45.9534C69.9173 46.3579 69.8758 46.7405 69.74 47.1011C69.6139 47.449 69.4146 47.7608 69.1419 48.0364C68.8693 48.3119 68.5283 48.545 68.1188 48.7356C67.7191 48.9134 67.272 49.0346 66.7776 49.0991C66.092 49.1886 65.4537 49.1575 64.8624 49.0061C64.2712 48.8546 63.775 48.5993 63.3739 48.2402L64.2636 46.6497C64.525 46.9014 64.8282 47.079 65.1732 47.1826C65.5279 47.2734 65.9019 47.2932 66.2953 47.2419C66.7673 47.1803 67.12 47.0372 67.3536 46.8124C67.5984 46.5862 67.6973 46.2932 67.6504 45.9336C67.5976 45.5291 67.4056 45.2398 67.0743 45.0659C66.7528 44.8792 66.2381 44.8321 65.5301 44.9244L64.8389 45.0146L64.6696 43.7166L65.3439 43.6286C65.8833 43.5583 66.2803 43.4036 66.5349 43.1647C66.7992 42.913 66.9101 42.6242 66.8676 42.2983C66.8309 42.0174 66.6963 41.8178 66.4637 41.6996C66.2424 41.5798 65.9632 41.542 65.626 41.586C65.3338 41.6241 65.0336 41.7318 64.7253 41.9092C64.4155 42.0753 64.1419 42.2996 63.9044 42.582L62.7786 41.4431ZM70.5393 46.4482L71.0113 46.3867C71.2767 46.3178 71.4848 46.2049 71.6358 46.0481C71.7965 45.8785 71.9189 45.6339 72.003 45.3144C72.0968 44.9821 72.1493 44.5524 72.1605 44.0252C72.183 43.4965 72.1871 42.8273 72.173 42.0177L72.1201 39.2473L78.3067 38.4402L79.2039 45.3179L80.3839 45.164L80.9689 49.648L78.9629 49.9097L78.633 47.3811L72.733 48.1508L73.0629 50.6794L71.1243 50.9323L70.5393 46.4482ZM76.9619 45.6104L76.311 40.6207L74.3387 40.878L74.3439 42.2317C74.3502 43.1566 74.3065 43.9167 74.2127 44.5118C74.1302 45.1055 73.9902 45.6095 73.7928 46.0238L76.9619 45.6104ZM86.191 46.5666C85.483 46.659 84.827 46.6245 84.2231 46.4633C83.6177 46.2908 83.0856 46.0231 82.6267 45.66C82.1679 45.297 81.7902 44.8548 81.4936 44.3335C81.2083 43.8107 81.026 43.2458 80.9468 42.639C80.8647 42.0096 80.8945 41.4057 81.0362 40.8272C81.1764 40.2374 81.4217 39.7082 81.772 39.2397C82.1209 38.7598 82.5658 38.3589 83.1067 38.0369C83.6588 37.7134 84.2945 37.5048 85.0137 37.411C85.733 37.3171 86.3897 37.3572 86.9838 37.5311C87.5892 37.7036 88.1157 37.9721 88.5633 38.3366C89.0221 38.6996 89.3886 39.1433 89.6627 39.6675C89.9481 40.1904 90.1296 40.7496 90.2073 41.3452C90.2263 41.4913 90.239 41.6325 90.2454 41.7688C90.263 41.9037 90.2664 42.0175 90.2557 42.1104L83.4285 43.001C83.5077 43.345 83.6323 43.643 83.8023 43.8951C83.9724 44.1473 84.1766 44.3549 84.4151 44.5181C84.6535 44.6813 84.9142 44.7959 85.1971 44.8618C85.48 44.9278 85.7675 44.9417 86.0597 44.9036C86.5093 44.845 86.9168 44.6832 87.2822 44.4184C87.6575 44.1408 87.8947 43.8127 87.9939 43.4341L90.0028 43.7206C89.7649 44.4374 89.3149 45.0619 88.6528 45.594C88.0005 46.1134 87.1799 46.4376 86.191 46.5666ZM87.7886 40.9407C87.6459 40.2849 87.3298 39.789 86.8402 39.4529C86.3604 39.104 85.8114 38.9699 85.1933 39.0505C84.8899 39.0901 84.6107 39.1837 84.3556 39.3312C84.1103 39.4661 83.899 39.6422 83.7216 39.8597C83.5443 40.0771 83.4057 40.3295 83.3061 40.6168C83.2176 40.9026 83.1834 41.21 83.2035 41.5388L87.7886 40.9407ZM91.0315 41.272C90.9509 40.6539 90.9814 40.0556 91.1231 39.477C91.2648 38.8985 91.5108 38.375 91.8611 37.9064C92.2114 37.4378 92.657 37.0425 93.1979 36.7205C93.7388 36.3985 94.3689 36.1906 95.0881 36.0967C96.0546 35.9707 96.9021 36.0715 97.6306 36.3994C98.3704 36.7258 98.9528 37.2041 99.3779 37.8344L97.2576 38.7968C97.0241 38.4958 96.7389 38.2815 96.4023 38.154C96.0642 38.0153 95.7041 37.9708 95.322 38.0206C94.9961 38.0632 94.7014 38.1702 94.4381 38.3417C94.1732 38.502 93.9495 38.714 93.7667 38.9779C93.5938 39.229 93.4667 39.5256 93.3856 39.8676C93.3157 40.2082 93.3065 40.5752 93.3578 40.9685C93.4091 41.3618 93.5178 41.7134 93.6839 42.0232C93.8501 42.3329 94.0497 42.5926 94.2828 42.8022C94.5271 43.0104 94.7985 43.1636 95.097 43.2618C95.3941 43.3487 95.7 43.3717 96.0147 43.3307C96.4192 43.2779 96.7769 43.1284 97.0877 42.8821C97.4096 42.6344 97.619 42.3556 97.7158 42.0458L100.012 42.432C99.7965 43.1459 99.3683 43.7618 98.7272 44.2797C98.0862 44.7977 97.2768 45.1204 96.2991 45.248C95.5798 45.3418 94.9175 45.3025 94.3121 45.13C93.7067 44.9575 93.1746 44.6898 92.7158 44.3268C92.2555 43.9525 91.8771 43.5047 91.5805 42.9833C91.2937 42.4493 91.1107 41.8788 91.0315 41.272ZM100.56 35.5372L102.802 35.2447L103.167 38.043L104.887 37.8187C105.359 37.7571 105.806 37.7673 106.228 37.8494C106.66 37.9188 107.045 38.0629 107.382 38.2818C107.717 38.4895 107.995 38.7734 108.213 39.1335C108.441 39.4809 108.587 39.8962 108.65 40.3794C108.714 40.8739 108.687 41.3232 108.568 41.7273C108.448 42.1201 108.259 42.4648 108 42.7614C107.742 43.058 107.419 43.3001 107.032 43.4878C106.655 43.6627 106.23 43.781 105.758 43.8425L101.713 44.3703L100.56 35.5372ZM105.275 42.1055C105.668 42.0542 105.964 41.9127 106.162 41.6811C106.359 41.4383 106.431 41.1146 106.378 40.71C106.326 40.3054 106.167 40.0118 105.903 39.8291C105.638 39.6351 105.326 39.5615 104.966 39.6085L103.398 39.813L103.724 42.3078L105.275 42.1055Z" fill="white"/>
</svg>
