<svg width="70" height="17" viewBox="0 0 70 17" fill="none" xmlns="http://www.w3.org/2000/svg">
<g clip-path="url(#clip0)">
<path fill-rule="evenodd" clip-rule="evenodd" d="M37.6347 3.95407C37.8031 4.11847 39.3184 8.03498 39.4768 8.51851C39.6346 9.03655 39.8575 9.53352 40.1404 9.99808C40.6653 10.1141 40.7148 9.60159 40.8733 9.19543C41.7349 7.00025 43.0422 3.79934 43.6959 1.64284C44.1514 0.598433 44.1911 0.317991 43.369 0.317991C42.547 0.317991 42.6362 0.840194 42.3093 1.51712C42.0221 2.80329 40.9129 5.52068 40.5068 6.76816C40.5068 6.93256 40.5068 6.93256 40.2989 6.93256C39.6155 5.07584 38.8232 2.80329 38.0507 0.965909C37.8427 0.608104 37.4763 0.53074 37.2287 1.33339C36.8127 2.60988 36.2383 4.12814 35.7926 5.36595C35.7926 5.36595 35.2578 6.93256 35.2182 7.00992C34.935 6.56526 34.7276 6.07862 34.6042 5.56903C33.9901 4.08945 33.4553 2.49384 32.9304 1.01426C32.8017 0.733819 32.8017 0.569422 32.5145 0.405025C32.2266 0.300858 31.9153 0.274138 31.6132 0.327662C30.8011 0.453377 31.326 1.09162 31.4944 1.56548C32.4848 4.16682 33.5841 7.29036 34.6834 9.76599C34.7091 9.82733 34.751 9.88097 34.8047 9.92149C34.8584 9.96202 34.9221 9.98801 34.9894 9.99683C35.0567 10.0057 35.1252 9.99701 35.188 9.97176C35.2507 9.94652 35.3056 9.90556 35.347 9.85302C35.5054 9.55324 37.5159 3.95407 37.6347 3.95407Z" fill="white"/>
<path fill-rule="evenodd" clip-rule="evenodd" d="M0.160559 0.482904C0.11962 0.644 0.133527 0.813732 0.200175 0.966424C0.368539 1.64335 -0.126651 9.36034 0.00209874 9.6698C0.402979 9.84582 0.852435 9.88665 1.27969 9.78584C1.47776 9.58276 1.39853 9.38936 1.39853 9.07023C1.39853 7.7067 1.51738 6.39153 1.51738 4.98932C1.5669 4.46711 1.60651 4.10931 1.60651 3.79019C1.60651 3.47106 1.60651 3.50974 1.68574 3.43238C1.76497 3.35502 3.06237 5.55987 3.19112 5.80163C3.43871 6.27548 3.924 7.00076 4.25083 7.56165C4.74602 8.44166 4.99361 7.84209 5.11246 7.63901C5.39967 7.28121 7.61811 3.48073 7.77658 3.40337C7.92513 3.5581 7.92513 7.35857 7.92513 7.63901C7.92513 9.71815 7.67754 9.92123 9.02445 9.83419C9.44041 9.83419 9.48003 9.51507 9.44041 9.15727C9.44041 8.48034 9.44041 7.71637 9.44041 7.03945C9.33147 5.31811 9.25224 3.35502 9.25224 1.64335C9.25224 1.44027 9.33147 0.676312 9.33147 0.560267C9.21023 0.426858 9.04598 0.337848 8.8659 0.307955C8.68581 0.278063 8.50067 0.309077 8.34109 0.39587C8.05388 0.560267 7.97465 0.918072 7.76667 1.15983C6.93475 2.60072 5.81562 4.23502 5.03323 5.59855C4.74602 6.08207 4.74602 5.91768 4.49842 5.59855C3.96362 4.83459 3.27035 3.51941 2.78506 2.75545L1.79469 1.15983C1.65702 0.882545 1.48035 0.625403 1.26978 0.39587C0.992478 0.202462 0.447769 0.357188 0.160559 0.482904Z" fill="white"/>
<path fill-rule="evenodd" clip-rule="evenodd" d="M52.4211 4.95973C52.7716 4.68046 53.1874 4.49017 53.6315 4.40581C54.0756 4.32144 54.5341 4.34563 54.9663 4.47621C56.2736 5.0371 56.442 6.92283 55.8676 7.84152C55.6229 8.19955 55.2705 8.47462 54.859 8.62878C54.4474 8.78294 53.997 8.80859 53.5699 8.70218C53.1561 8.62245 52.7645 8.45762 52.4211 8.21866V4.95973ZM52.4211 3.5962C52.3593 2.54299 52.3593 1.48719 52.4211 0.433978C52.4211 -0.00119026 52.2626 -0.0785536 51.8466 0.0761731C50.8563 0.48233 50.8563 0.317933 50.9949 1.19794C51.0741 1.64278 50.9949 6.79711 50.9949 7.52239C50.9949 8.95361 50.7869 9.28241 52.9162 9.88197C53.5226 10.0061 54.1483 10.0093 54.7559 9.89133C55.3635 9.77334 55.9404 9.53661 56.4519 9.19537C58.5416 7.52239 57.9672 2.80323 54.1542 3.16104C53.8219 3.1786 53.491 3.21736 53.1638 3.27708C53.0351 3.31576 52.5498 3.5962 52.4904 3.5962H52.4211Z" fill="white"/>
<path fill-rule="evenodd" clip-rule="evenodd" d="M23.5436 9.75707C23.6985 9.25277 23.7424 8.72217 23.6724 8.20013C23.6318 7.65286 23.6318 7.10344 23.6724 6.55616C23.7912 6.55616 23.92 6.75924 24.1675 7.001C24.4151 7.24276 26.4553 9.3219 26.7822 9.55399C26.8962 9.65761 27.0336 9.73351 27.1833 9.77552C27.3331 9.81753 27.4908 9.82446 27.6438 9.79575C27.931 9.79575 28.3866 9.79575 28.545 9.60234C28.545 9.3219 27.9706 8.87706 27.723 8.6353C27.4754 8.39354 27.1585 8.08409 26.8713 7.7553C26.2413 7.21397 25.6522 6.629 25.1084 6.00495C25.1084 5.91792 27.3566 4.07087 27.7725 3.72273C27.931 3.55833 28.0994 3.51965 28.0597 3.27789C27.55 3.12435 27.0047 3.12435 26.4949 3.27789C26.2969 3.36493 24.94 4.56406 24.5736 4.88318C24.4548 4.99923 23.7516 5.72451 23.6724 5.68583C23.5535 5.31835 23.6724 0.318745 23.5931 0.0383024C23.5139 -0.24214 22.1175 0.2027 22.1571 0.68622C22.2347 1.02595 22.2746 1.37287 22.2759 1.72095V8.6353C22.2759 8.87706 22.1967 9.60234 22.3651 9.71839C22.7504 9.81455 23.1525 9.82775 23.5436 9.75707Z" fill="white"/>
<path fill-rule="evenodd" clip-rule="evenodd" d="M12.8814 6.47894C13.337 6.3629 14.8622 6.7207 14.9315 7.11719C14.9711 7.54504 14.9711 7.9755 14.9315 8.40335C14.6443 8.76116 12.6734 9.47677 12.0198 8.20027C11.9317 8.01894 11.886 7.82075 11.886 7.62005C11.886 7.41935 11.9317 7.22116 12.0198 7.03982C12.1149 6.89239 12.2408 6.76621 12.3893 6.66956C12.5377 6.5729 12.7055 6.50795 12.8814 6.47894ZM14.9711 5.99542C14.5863 5.74648 14.1558 5.57245 13.7034 5.48289C13.1396 5.42193 12.5692 5.46125 12.0198 5.59893C11.5572 5.72831 11.1493 5.99921 10.8561 6.3718C10.5629 6.74439 10.3999 7.19901 10.391 7.66881C10.3821 8.13861 10.5279 8.59878 10.8068 8.98167C11.0857 9.36456 11.4831 9.64996 11.9406 9.79589C12.7239 10.0567 13.5737 10.0567 14.3571 9.79589C14.5254 9.71853 14.8523 9.51545 14.9711 9.47677C15.09 9.43809 15.1395 9.75721 15.2979 9.83458C15.4564 9.91194 16.1992 9.83458 16.4072 9.64117C16.6151 9.44776 16.6548 9.47677 16.526 9.19633C16.3344 8.8263 16.2652 8.40729 16.3279 7.9972V5.11541C16.3797 4.70737 16.2777 4.29487 16.0407 3.95496C15.2583 2.43671 10.5441 3.03627 10.9205 4.32244C11.2968 5.6086 11.9108 3.8776 13.9906 4.11936C15.1098 4.2354 14.9909 5.27981 14.9909 5.99542H14.9711Z" fill="white"/>
<path fill-rule="evenodd" clip-rule="evenodd" d="M63.4474 5.80038H60.0504C60.096 5.40331 60.2815 5.03408 60.5753 4.75598C60.896 4.48136 61.299 4.31517 61.7242 4.28213C61.9457 4.26426 62.1685 4.29016 62.3795 4.35829C62.5905 4.42641 62.7853 4.53535 62.9522 4.67861C63.1203 4.8136 63.2529 4.98581 63.339 5.18093C63.4251 5.37604 63.4623 5.58841 63.4474 5.80038ZM59.9613 6.83512C60.2089 6.71907 63.9228 6.83512 64.5963 6.83512C65.2697 6.83512 64.9627 4.67861 63.7346 3.79861C63.2329 3.43338 62.6357 3.21415 62.0118 3.16623C61.3879 3.11831 60.7629 3.24365 60.2089 3.52779C59.6548 3.81193 59.1944 4.24327 58.8807 4.77202C58.567 5.30077 58.4129 5.90536 58.4361 6.51599C58.4126 7.10907 58.5539 7.69731 58.8451 8.21829C59.1363 8.73928 59.5665 9.17359 60.09 9.47514C61.1894 10.2004 64.1407 10.1617 64.5071 9.03997C64.9627 7.59908 63.8931 8.40172 63.5168 8.55645C63.2003 8.68314 62.8667 8.76456 62.5264 8.79821C60.3376 9.03997 59.8028 7.15424 59.9613 6.83512Z" fill="white"/>
<path fill-rule="evenodd" clip-rule="evenodd" d="M45.0957 5.80098C45.1304 5.38795 45.3227 5.00271 45.6345 4.72153C45.9463 4.44036 46.3549 4.28376 46.7793 4.28273C47.6311 4.19569 48.6214 4.92097 48.4531 5.80098H45.0957ZM44.9273 6.76802C45.1353 6.76802 48.9879 6.76802 49.5227 6.76802C50.0575 6.76802 49.9684 6.4489 49.9287 6.05241C49.8998 5.51546 49.7285 4.99506 49.4317 4.54218C49.1348 4.08931 48.7226 3.71948 48.2354 3.46893C47.7482 3.21838 47.2026 3.09571 46.6523 3.11292C46.1019 3.13013 45.5655 3.28664 45.0957 3.56711C44.5674 3.87186 44.1354 4.31289 43.8471 4.84176C43.5588 5.37063 43.4254 5.96687 43.4616 6.56494C43.4195 7.15533 43.5557 7.7448 43.8532 8.26043C44.1506 8.77606 44.5964 9.19522 45.1353 9.46607C46.5317 10.3074 49.2751 9.94959 49.5227 8.99222C49.5227 8.71178 49.7208 8.02518 49.2751 8.18957C48.7367 8.48674 48.1507 8.69273 47.5419 8.79881C47.2174 8.84115 46.8875 8.82021 46.5713 8.73722C46.2551 8.65422 45.9589 8.51081 45.6998 8.31529C45.3433 8.03485 44.7689 7.19352 44.9273 6.76802Z" fill="white"/>
<path fill-rule="evenodd" clip-rule="evenodd" d="M67.1702 9.79601C67.4178 9.55425 67.3782 9.43821 67.3782 9.0804V8.11336C67.3782 6.83687 67.1306 4.71905 68.6458 4.39992C68.9727 4.32256 69.0519 4.59333 69.4679 4.51597C69.7132 4.30108 69.8974 4.02791 70.0027 3.72299C70.0027 3.11376 69.0123 2.99771 68.111 3.3942C67.8238 3.51991 67.5861 3.95508 67.3782 3.99377C67.3782 3.63596 67.4574 3.48123 67.2098 3.16211C66.8924 3.19183 66.5851 3.28745 66.3086 3.44255C65.9025 3.63596 65.8233 3.63596 65.9025 4.11948C65.9817 4.603 65.9025 7.91995 65.9025 8.71293C65.9421 9.92173 65.9421 9.88305 67.1702 9.79601Z" fill="white"/>
<path fill-rule="evenodd" clip-rule="evenodd" d="M18.8774 9.75666V9.6793C18.9924 8.69712 19.0222 7.70723 18.9666 6.72015C18.9666 5.95619 19.1647 4.71838 20.0263 4.47662C20.7196 4.23486 20.7592 4.8731 21.2147 4.47662C22.2744 3.39353 20.8483 2.95836 19.9867 3.31617C19.125 3.67397 19.2439 3.95441 18.9963 4.03178C18.9764 3.87442 18.9764 3.71528 18.9963 3.55793C18.9963 3.35485 18.9072 3.35485 18.8279 3.2388C18.5104 3.23628 18.1984 3.31998 17.9267 3.48056C17.5206 3.63529 17.3919 3.67397 17.5206 4.15749C17.6078 4.89888 17.6342 5.64586 17.5999 6.39136V8.59621C17.689 9.79534 17.5206 9.88238 18.8774 9.75666Z" fill="white"/>
<path fill-rule="evenodd" clip-rule="evenodd" d="M37.3485 11.0441C35.7135 11.2411 34.1059 11.614 32.555 12.1562C32.0697 12.3593 31.5646 12.4754 31.0794 12.6784C30.089 13.0362 29.158 13.3554 28.1775 13.7228C27.8507 13.8389 25.5134 14.5158 25.1074 14.6028C23.1266 15.0767 20.1555 15.6376 18.2639 14.7963C17.3626 14.3611 17.2735 15.7149 19.3236 16.1985C20.5224 16.4035 21.7527 16.3507 22.9285 16.0437C23.9189 15.8407 25.1074 15.4829 26.0482 15.2024C26.9891 14.922 28.0983 14.6028 29.1184 14.3224C29.366 14.2354 29.5641 14.158 29.8513 14.0806L31.3666 13.6358C31.6538 13.5584 31.8618 13.4424 32.1093 13.3554L33.6741 12.9976C33.9614 12.9202 34.1693 12.8428 34.4169 12.7558C36.4905 12.3239 38.6054 12.1099 40.7256 12.1175C41.2505 12.1175 42.0329 12.2433 42.5678 12.3206C43.5581 12.4367 43.3402 11.9241 42.6866 11.5953C40.9871 10.9595 39.1466 10.7695 37.3485 11.0441Z" fill="#F9CC46"/>
</g>
<defs>
<clipPath id="clip0">
<rect width="70" height="16.3333" fill="white"/>
</clipPath>
</defs>
</svg>
