<svg width="20" height="16" viewBox="0 0 20 16" fill="none" xmlns="http://www.w3.org/2000/svg">
<path fill-rule="evenodd" clip-rule="evenodd" d="M19.25 8C19.25 7.44772 18.8023 7 18.25 7H1.75C1.19772 7 0.75 7.44772 0.75 8C0.75 8.55228 1.19772 9 1.75 9H18.25C18.8023 9 19.25 8.55228 19.25 8Z" fill="#434242"/>
<path fill-rule="evenodd" clip-rule="evenodd" d="M9.20711 0.542893C8.81658 0.152369 8.18342 0.152369 7.79289 0.542893L1.04289 7.29289C0.652369 7.68342 0.652369 8.31658 1.04289 8.70711L7.79289 15.4571C8.18342 15.8476 8.81658 15.8476 9.20711 15.4571C9.59763 15.0666 9.59763 14.4334 9.20711 14.0429L3.16421 8L9.20711 1.95711C9.59763 1.56658 9.59763 0.933417 9.20711 0.542893Z" fill="#434242"/>
</svg>
