<svg width="18" height="20" viewBox="0 0 18 20" fill="none" xmlns="http://www.w3.org/2000/svg">
<path d="M9.01172 20C7.28839 20 5.88672 18.5983 5.88672 16.875C5.88672 16.53 6.16672 16.25 6.51172 16.25C6.85672 16.25 7.13672 16.53 7.13672 16.875C7.13672 17.9092 7.97763 18.75 9.01172 18.75C10.046 18.75 10.8867 17.9092 10.8867 16.875C10.8867 16.53 11.1667 16.25 11.5117 16.25C11.8567 16.25 12.1367 16.53 12.1367 16.875C12.1367 18.5983 10.735 20 9.01172 20Z" fill="#434242"/>
<path d="M15.888 17.5H2.13797C1.33383 17.5 0.679688 16.8459 0.679688 16.0417C0.679688 15.6149 0.86554 15.2109 1.18964 14.9333C2.45718 13.8625 3.17969 12.3059 3.17969 10.6567V8.33328C3.17969 5.11673 5.79642 2.5 9.01297 2.5C12.2297 2.5 14.8464 5.11673 14.8464 8.33328V10.6567C14.8464 12.3059 15.5689 13.8625 16.8281 14.9275C17.1606 15.2109 17.3464 15.6149 17.3464 16.0417C17.3464 16.8459 16.6923 17.5 15.888 17.5ZM9.01297 3.75C6.4855 3.75 4.42969 5.80582 4.42969 8.33328V10.6567C4.42969 12.6741 3.54559 14.5792 2.00476 15.8817C1.97546 15.9067 1.92969 15.9584 1.92969 16.0417C1.92969 16.1549 2.02475 16.25 2.13797 16.25H15.888C16.0013 16.25 16.0964 16.1549 16.0964 16.0417C16.0964 15.9584 16.0505 15.9067 16.023 15.8833C14.4805 14.5792 13.5964 12.6741 13.5964 10.6567V8.33328C13.5964 5.80582 11.5406 3.75 9.01297 3.75Z" fill="#434242"/>
<path d="M9.01172 3.75C8.66672 3.75 8.38672 3.47 8.38672 3.125V0.625C8.38672 0.279999 8.66672 0 9.01172 0C9.35672 0 9.63672 0.279999 9.63672 0.625V3.125C9.63672 3.47 9.35672 3.75 9.01172 3.75Z" fill="#434242"/>
</svg>
