<svg width="24" height="26" viewBox="0 0 24 26" fill="none" xmlns="http://www.w3.org/2000/svg">
<path fill-rule="evenodd" clip-rule="evenodd" d="M12.1139 12.1068C12.607 12.1119 13.0026 12.5157 12.9975 13.0088L12.879 24.4832C12.8739 24.9763 12.4701 25.3719 11.977 25.3668C11.4839 25.3617 11.0883 24.9578 11.0934 24.4647L11.2119 12.9904C11.217 12.4973 11.6208 12.1017 12.1139 12.1068Z" fill="#434242"/>
<path fill-rule="evenodd" clip-rule="evenodd" d="M11.1063 0.863951C11.3743 0.712436 11.677 0.632812 11.9849 0.632812C12.2929 0.632812 12.5955 0.712436 12.8636 0.863951L22.2386 6.16286C22.5139 6.31847 22.7429 6.54439 22.9023 6.81752C23.0617 7.09065 23.1456 7.40121 23.1456 7.71744V18.2827C23.1456 18.5989 23.0617 18.9095 22.9023 19.1826C22.7429 19.4557 22.5139 19.6817 22.2386 19.8373L12.8636 25.1362C12.5955 25.2877 12.2928 25.3673 11.9849 25.3673C11.677 25.3673 11.3743 25.2877 11.1063 25.1362L1.73126 19.8373C1.45596 19.6817 1.22692 19.4557 1.06756 19.1826C0.908193 18.9095 0.824218 18.5989 0.824219 18.2827V7.71744C0.824219 7.40121 0.908194 7.09065 1.06756 6.81752C1.22692 6.54439 1.45596 6.31847 1.73126 6.16286L11.1063 0.863951ZM11.9849 2.41853L2.60993 7.71744L2.60993 18.2827L11.9849 23.5816L21.3599 18.2827V7.71744L11.9849 2.41853Z" fill="#434242"/>
<path fill-rule="evenodd" clip-rule="evenodd" d="M1.06671 6.82956C1.30724 6.3991 1.8512 6.24512 2.28167 6.48566L12.1044 11.9743L21.6933 6.49123C22.1214 6.24645 22.6669 6.39504 22.9116 6.82311C23.1564 7.25118 23.0078 7.79663 22.5798 8.04141L12.5526 13.775C12.2808 13.9305 11.9473 13.9321 11.6739 13.7793L1.41062 8.04452C0.980151 7.80399 0.826179 7.26003 1.06671 6.82956Z" fill="#434242"/>
<path fill-rule="evenodd" clip-rule="evenodd" d="M6.34015 3.70994C6.58068 3.27947 7.12463 3.12549 7.5551 3.36603L17.9099 9.15196C18.1923 9.30975 18.3672 9.60792 18.3672 9.93139V15.2885C18.3672 15.7816 17.9675 16.1814 17.4744 16.1814C16.9813 16.1814 16.5815 15.7816 16.5815 15.2885V10.4553L6.68406 4.92489C6.25359 4.68436 6.09962 4.14041 6.34015 3.70994Z" fill="#434242"/>
</svg>
