<svg width="20" height="21" viewBox="0 0 20 21" fill="none" xmlns="http://www.w3.org/2000/svg">
<path fill-rule="evenodd" clip-rule="evenodd" d="M2.75 3.75V18.25H17.25V3.75H2.75ZM0.75 3.5C0.75 2.5335 1.5335 1.75 2.5 1.75H17.5C18.4665 1.75 19.25 2.5335 19.25 3.5V18.5C19.25 19.4665 18.4665 20.25 17.5 20.25H2.5C1.5335 20.25 0.75 19.4665 0.75 18.5V3.5Z" fill="#848484"/>
<path fill-rule="evenodd" clip-rule="evenodd" d="M14.5 0.25C15.0523 0.25 15.5 0.697715 15.5 1.25V4.25C15.5 4.80228 15.0523 5.25 14.5 5.25C13.9477 5.25 13.5 4.80228 13.5 4.25V1.25C13.5 0.697715 13.9477 0.25 14.5 0.25Z" fill="#848484"/>
<path fill-rule="evenodd" clip-rule="evenodd" d="M5.5 0.25C6.05228 0.25 6.5 0.697715 6.5 1.25V4.25C6.5 4.80228 6.05228 5.25 5.5 5.25C4.94772 5.25 4.5 4.80228 4.5 4.25V1.25C4.5 0.697715 4.94772 0.25 5.5 0.25Z" fill="#848484"/>
<path fill-rule="evenodd" clip-rule="evenodd" d="M0.75 7.25C0.75 6.69772 1.19772 6.25 1.75 6.25H18.25C18.8023 6.25 19.25 6.69772 19.25 7.25C19.25 7.80228 18.8023 8.25 18.25 8.25H1.75C1.19772 8.25 0.75 7.80228 0.75 7.25Z" fill="#848484"/>
</svg>
