<svg width="22" height="22" viewBox="0 0 22 22" fill="none" xmlns="http://www.w3.org/2000/svg">
<path fill-rule="evenodd" clip-rule="evenodd" d="M16.5555 7.70459C16.8959 8.06128 16.8828 8.62646 16.5261 8.96694L9.97844 15.2169C9.63341 15.5463 9.09046 15.5463 8.74544 15.2169L5.47167 12.0919C5.11498 11.7514 5.10184 11.1863 5.44232 10.8296C5.78281 10.4729 6.34798 10.4597 6.70467 10.8002L9.36195 13.3368L15.2931 7.67523C15.6498 7.33475 16.215 7.34789 16.5555 7.70459Z" fill="#848484"/>
<path fill-rule="evenodd" clip-rule="evenodd" d="M0.285156 2.07087C0.285156 1.08465 1.08465 0.285156 2.07087 0.285156H19.928C20.9142 0.285156 21.7137 1.08465 21.7137 2.07087V19.928C21.7137 20.9142 20.9142 21.7137 19.928 21.7137H2.07087C1.08465 21.7137 0.285156 20.9142 0.285156 19.928V2.07087ZM19.928 2.07087H2.07087V19.928H19.928V2.07087Z" fill="#848484"/>
</svg>
