<svg width="28" height="20" viewBox="0 0 28 20" fill="none" xmlns="http://www.w3.org/2000/svg">
<path fill-rule="evenodd" clip-rule="evenodd" d="M18.4649 3.64244C18.4649 3.14933 18.8646 2.74958 19.3577 2.74958H24.1104C24.4673 2.74958 24.816 2.85652 25.1115 3.0566C25.407 3.25669 25.6358 3.54074 25.7684 3.8721L27.3296 7.77513C27.4396 8.05021 27.406 8.36195 27.2399 8.60729C27.0738 8.85262 26.7968 8.99958 26.5006 8.99958H19.3577C18.8646 8.99958 18.4649 8.59984 18.4649 8.10673V3.64244ZM20.2506 4.5353V7.21387H25.1818L24.1104 4.5353H20.2506Z" fill="#848484"/>
<path fill-rule="evenodd" clip-rule="evenodd" d="M0.609375 10.7854C0.609375 10.2923 1.00912 9.89258 1.50223 9.89258H19.3594C19.8525 9.89258 20.2522 10.2923 20.2522 10.7854C20.2522 11.2785 19.8525 11.6783 19.3594 11.6783H1.50223C1.00912 11.6783 0.609375 11.2785 0.609375 10.7854Z" fill="#848484"/>
<path fill-rule="evenodd" clip-rule="evenodd" d="M20.697 14.3567C19.7108 14.3567 18.9113 15.1562 18.9113 16.1425C18.9113 17.1287 19.7108 17.9282 20.697 17.9282C21.6832 17.9282 22.4827 17.1287 22.4827 16.1425C22.4827 15.1562 21.6832 14.3567 20.697 14.3567ZM17.1256 16.1425C17.1256 14.17 18.7246 12.571 20.697 12.571C22.6694 12.571 24.2684 14.17 24.2684 16.1425C24.2684 18.1149 22.6694 19.7139 20.697 19.7139C18.7246 19.7139 17.1256 18.1149 17.1256 16.1425Z" fill="#848484"/>
<path fill-rule="evenodd" clip-rule="evenodd" d="M7.3058 14.3565C6.31958 14.3565 5.52009 15.156 5.52009 16.1422C5.52009 17.1285 6.31958 17.9279 7.3058 17.9279C8.29203 17.9279 9.09152 17.1285 9.09152 16.1422C9.09152 15.156 8.29203 14.3565 7.3058 14.3565ZM3.73438 16.1422C3.73438 14.1698 5.33336 12.5708 7.3058 12.5708C9.27825 12.5708 10.8772 14.1698 10.8772 16.1422C10.8772 18.1147 9.27825 19.7137 7.3058 19.7137C5.33336 19.7137 3.73438 18.1147 3.73438 16.1422Z" fill="#848484"/>
<path fill-rule="evenodd" clip-rule="evenodd" d="M9.08985 16.1425C9.08985 15.6493 9.4896 15.2496 9.98271 15.2496H18.0184C18.5115 15.2496 18.9113 15.6493 18.9113 16.1425C18.9113 16.6356 18.5115 17.0353 18.0184 17.0353H9.98271C9.4896 17.0353 9.08985 16.6356 9.08985 16.1425Z" fill="#848484"/>
<path fill-rule="evenodd" clip-rule="evenodd" d="M1.1324 1.48689C1.46728 1.152 1.92149 0.963867 2.39509 0.963867H19.3594C19.8525 0.963867 20.2522 1.36361 20.2522 1.85672V13.8227C20.2522 14.3158 19.8525 14.7155 19.3594 14.7155C18.8663 14.7155 18.4665 14.3158 18.4665 13.8227V2.74958L2.39509 2.74958V15.2496H4.62723C5.12034 15.2496 5.52009 15.6491 5.52009 16.1422C5.52009 16.6353 5.12034 17.0353 4.62723 17.0353H2.39509C1.92149 17.0353 1.46729 16.8472 1.1324 16.5123C0.797512 16.1774 0.609375 15.7232 0.609375 15.2496V2.74958C0.609375 2.27598 0.797512 1.82178 1.1324 1.48689Z" fill="#848484"/>
<path fill-rule="evenodd" clip-rule="evenodd" d="M18.4649 8.10673C18.4649 7.61361 18.8646 7.21388 19.3577 7.21388H26.5006C26.9937 7.21388 27.3934 7.61363 27.3934 8.10674V15.2496C27.3934 15.7232 27.2053 16.1774 26.8704 16.5123C26.5355 16.8472 26.0813 17.0353 25.6077 17.0353H23.3756C22.8825 17.0353 22.4827 16.6356 22.4827 16.1425C22.4827 15.6493 22.8825 15.2496 23.3756 15.2496H25.6077V8.9996H20.2506V13.8227C20.2506 14.3158 19.8508 14.7156 19.3577 14.7156C18.8646 14.7156 18.4649 14.3158 18.4649 13.8227V8.10673Z" fill="#848484"/>
</svg>
