<svg width="38" height="38" viewBox="0 0 38 38" fill="none" xmlns="http://www.w3.org/2000/svg">
<g clip-path="url(#clip0)">
<path d="M28.7001 22.5928C26.0589 22.5928 23.9102 24.7415 23.9102 27.3827C23.9102 30.0239 26.0589 32.1726 28.7001 32.1726C31.3418 32.1726 33.49 30.0239 33.49 27.3827C33.49 24.7415 31.3413 22.5928 28.7001 22.5928ZM28.7001 29.7777C27.3793 29.7777 26.3051 28.7035 26.3051 27.3827C26.3051 26.0619 27.3793 24.9877 28.7001 24.9877C30.0209 24.9877 31.0951 26.0619 31.0951 27.3827C31.0951 28.7036 30.0209 29.7777 28.7001 29.7777Z" fill="#434242"/>
<path d="M12.3329 22.5928C9.69167 22.5928 7.54297 24.7415 7.54297 27.3827C7.54297 30.0239 9.69167 32.1726 12.3329 32.1726C14.9741 32.1726 17.1228 30.0239 17.1228 27.3827C17.1228 24.7415 14.9741 22.5928 12.3329 22.5928ZM12.3329 29.7777C11.0121 29.7777 9.93793 28.7035 9.93793 27.3827C9.93793 26.0619 11.0121 24.9877 12.3329 24.9877C13.6533 24.9877 14.7279 26.0619 14.7279 27.3827C14.7279 28.7036 13.6537 29.7777 12.3329 29.7777Z" fill="#434242"/>
<path d="M31.9238 8.88209C31.7202 8.47775 31.3063 8.22266 30.8536 8.22266H24.5469V10.6176H30.1151L33.3759 17.1032L35.5162 16.027L31.9238 8.88209Z" fill="#434242"/>
<path d="M25.1078 26.2246H16.0469V28.6196H25.1078V26.2246Z" fill="#434242"/>
<path d="M8.74318 26.2246H4.59198C3.93054 26.2246 3.39453 26.7607 3.39453 27.4221C3.39453 28.0835 3.93061 28.6195 4.59198 28.6195H8.74326C9.40469 28.6195 9.9407 28.0834 9.9407 27.4221C9.9407 26.7606 9.40462 26.2246 8.74318 26.2246Z" fill="#434242"/>
<path d="M37.7502 18.9036L35.3948 15.87C35.1685 15.5778 34.8192 15.4069 34.4492 15.4069H25.7474V7.02459C25.7474 6.36316 25.2114 5.82715 24.55 5.82715H4.59198C3.93054 5.82715 3.39453 6.36323 3.39453 7.02459C3.39453 7.68596 3.93061 8.22204 4.59198 8.22204H23.3525V16.6044C23.3525 17.2658 23.8886 17.8018 24.5499 17.8018H33.8627L35.6067 20.0483V26.2241H32.2936C31.6322 26.2241 31.0962 26.7602 31.0962 27.4215C31.0962 28.083 31.6323 28.619 32.2936 28.619H36.8041C37.4655 28.619 38.0016 28.0829 38.0016 27.4215V19.6381C38.0016 19.3722 37.913 19.1136 37.7502 18.9036Z" fill="#434242"/>
<path d="M8.66291 20.1572H3.15448C2.49304 20.1572 1.95703 20.6933 1.95703 21.3547C1.95703 22.0161 2.49311 22.5521 3.15448 22.5521H8.66284C9.32428 22.5521 9.86028 22.016 9.86028 21.3547C9.86036 20.6933 9.32428 20.1572 8.66291 20.1572Z" fill="#434242"/>
<path d="M11.416 15.4473H1.19745C0.536082 15.4473 0 15.9833 0 16.6448C0 17.3062 0.536082 17.8422 1.19745 17.8422H11.416C12.0774 17.8422 12.6134 17.3061 12.6134 16.6448C12.6134 15.9834 12.0774 15.4473 11.416 15.4473Z" fill="#434242"/>
<path d="M13.373 10.7383H3.15448C2.49304 10.7383 1.95703 11.2744 1.95703 11.9357C1.95703 12.5972 2.49311 13.1332 3.15448 13.1332H13.373C14.0344 13.1332 14.5704 12.5971 14.5704 11.9357C14.5705 11.2744 14.0344 10.7383 13.373 10.7383Z" fill="#434242"/>
</g>
<defs>
<clipPath id="clip0">
<rect width="38" height="38" fill="white"/>
</clipPath>
</defs>
</svg>
