<svg width="18" height="21" viewBox="0 0 18 21" fill="none" xmlns="http://www.w3.org/2000/svg">
<path fill-rule="evenodd" clip-rule="evenodd" d="M2.5 2.5V18.5H15.5007V7.16421L10.8365 2.5H2.5ZM1.01256 1.01256C1.34075 0.684375 1.78587 0.5 2.25 0.5H11.2507C11.5159 0.5 11.7703 0.605357 11.9578 0.792893L17.2078 6.04289C17.3954 6.23043 17.5007 6.48478 17.5007 6.75V18.75C17.5007 18.9798 17.4555 19.2074 17.3675 19.4197C17.2796 19.632 17.1507 19.8249 16.9882 19.9874C16.8257 20.1499 16.6327 20.2788 16.4204 20.3668C16.2081 20.4547 15.9805 20.5 15.7507 20.5H2.25C1.78587 20.5 1.34075 20.3156 1.01256 19.9874C0.684373 19.6593 0.5 19.2141 0.5 18.75V2.25C0.5 1.78587 0.684374 1.34075 1.01256 1.01256Z" fill="#434242"/>
<path fill-rule="evenodd" clip-rule="evenodd" d="M11.25 0.5C11.8023 0.5 12.25 0.947715 12.25 1.5V5.75H16.5007C17.053 5.75 17.5007 6.19772 17.5007 6.75C17.5007 7.30228 17.053 7.75 16.5007 7.75H11.25C10.6977 7.75 10.25 7.30228 10.25 6.75V1.5C10.25 0.947715 10.6977 0.5 11.25 0.5Z" fill="#434242"/>
<path fill-rule="evenodd" clip-rule="evenodd" d="M5 11.25C5 10.6977 5.44772 10.25 6 10.25H12C12.5523 10.25 13 10.6977 13 11.25C13 11.8023 12.5523 12.25 12 12.25H6C5.44772 12.25 5 11.8023 5 11.25Z" fill="#434242"/>
<path fill-rule="evenodd" clip-rule="evenodd" d="M5 14.25C5 13.6977 5.44772 13.25 6 13.25H12C12.5523 13.25 13 13.6977 13 14.25C13 14.8023 12.5523 15.25 12 15.25H6C5.44772 15.25 5 14.8023 5 14.25Z" fill="#434242"/>
</svg>
