<svg width="14" height="14" viewBox="0 0 14 14" fill="none" xmlns="http://www.w3.org/2000/svg">
<path d="M13.043 0C12.5357 0 1.46152 0 0.957031 0C0.429297 0 0 0.429297 0 0.957031V13.043C0 13.5707 0.429297 14 0.957031 14H13.043C13.5707 14 14 13.5707 14 13.043V0.957031C14 0.429297 13.5707 0 13.043 0ZM5.0616 0.820312H8.9384V3.13934L7.15285 2.42238C7.05496 2.38301 6.94504 2.38301 6.84715 2.42238L5.0616 3.13934V0.820312ZM13.1797 13.043C13.1797 13.1184 13.1184 13.1797 13.043 13.1797H0.957031C0.881562 13.1797 0.820312 13.1184 0.820312 13.043V0.957031C0.820312 0.881562 0.881562 0.820312 0.957031 0.820312H4.24129V3.74609C4.24129 4.03512 4.53376 4.23505 4.8043 4.12672L7 3.24516L9.1957 4.12672C9.46668 4.23511 9.75871 4.03465 9.75871 3.74609V0.820312H13.043C13.1184 0.820312 13.1797 0.881562 13.1797 0.957031V13.043Z" fill="#4A5B4C"/>
</svg>
