<svg width="2" height="12" viewBox="0 0 2 12" fill="none" xmlns="http://www.w3.org/2000/svg">
<path d="M1 6.9375C1.51777 6.9375 1.9375 6.51777 1.9375 6C1.9375 5.48223 1.51777 5.0625 1 5.0625C0.482233 5.0625 0.0625 5.48223 0.0625 6C0.0625 6.51777 0.482233 6.9375 1 6.9375Z" fill="black"/>
<path d="M1 1.9375C1.51777 1.9375 1.9375 1.51777 1.9375 1C1.9375 0.482233 1.51777 0.0625 1 0.0625C0.482233 0.0625 0.0625 0.482233 0.0625 1C0.0625 1.51777 0.482233 1.9375 1 1.9375Z" fill="black"/>
<path d="M1 11.9375C1.51777 11.9375 1.9375 11.5178 1.9375 11C1.9375 10.4822 1.51777 10.0625 1 10.0625C0.482233 10.0625 0.0625 10.4822 0.0625 11C0.0625 11.5178 0.482233 11.9375 1 11.9375Z" fill="black"/>
</svg>
