<svg width="24" height="28" viewBox="0 0 24 28" fill="none" xmlns="http://www.w3.org/2000/svg">
<path fill-rule="evenodd" clip-rule="evenodd" d="M2.4375 2.25C2.42092 2.25 2.40503 2.25658 2.39331 2.26831C2.38158 2.28003 2.375 2.29592 2.375 2.3125V25.6875C2.375 25.7041 2.38159 25.72 2.39331 25.7317C2.40503 25.7434 2.42092 25.75 2.4375 25.75H21.5635C21.5717 25.75 21.5799 25.7484 21.5875 25.7452C21.595 25.7421 21.6019 25.7375 21.6077 25.7317C21.6135 25.7259 21.6181 25.719 21.6213 25.7114C21.6244 25.7038 21.626 25.6957 21.626 25.6875V9.10171L14.7743 2.25H2.4375ZM0.979092 0.854092C1.36589 0.467299 1.89049 0.25 2.4375 0.25H15.1885C15.4538 0.25 15.7081 0.355357 15.8956 0.542893L23.3331 7.98039C23.5207 8.16793 23.626 8.42228 23.626 8.6875V25.6875C23.626 25.9583 23.5727 26.2265 23.469 26.4768C23.3654 26.727 23.2135 26.9544 23.0219 27.1459C22.8304 27.3374 22.6031 27.4894 22.3528 27.593C22.1026 27.6967 21.8344 27.75 21.5635 27.75H2.4375C1.89049 27.75 1.36589 27.5327 0.979092 27.1459C0.592297 26.7591 0.375 26.2345 0.375 25.6875V2.3125C0.375 1.76549 0.592298 1.24089 0.979092 0.854092Z" fill="#434242"/>
<path fill-rule="evenodd" clip-rule="evenodd" d="M15.1875 0.25C15.7398 0.25 16.1875 0.697715 16.1875 1.25V7.6875H22.6261C23.1783 7.6875 23.6261 8.13522 23.6261 8.6875C23.6261 9.23978 23.1783 9.6875 22.6261 9.6875H15.1875C14.6352 9.6875 14.1875 9.23978 14.1875 8.6875V1.25C14.1875 0.697715 14.6352 0.25 15.1875 0.25Z" fill="#434242"/>
<path fill-rule="evenodd" clip-rule="evenodd" d="M7.57414 17.0116C7.96467 16.6211 8.59783 16.6211 8.98836 17.0116L12 20.0233L15.0116 17.0116C15.4022 16.6211 16.0353 16.6211 16.4259 17.0116C16.8164 17.4022 16.8164 18.0353 16.4259 18.4259L12.7071 22.1446C12.3166 22.5351 11.6834 22.5351 11.2929 22.1446L7.57414 18.4259C7.18362 18.0353 7.18362 17.4022 7.57414 17.0116Z" fill="#434242"/>
<path fill-rule="evenodd" clip-rule="evenodd" d="M12 11.9375C12.5523 11.9375 13 12.3852 13 12.9375V21.4375C13 21.9898 12.5523 22.4375 12 22.4375C11.4477 22.4375 11 21.9898 11 21.4375V12.9375C11 12.3852 11.4477 11.9375 12 11.9375Z" fill="#434242"/>
</svg>
