<svg width="16" height="15" viewBox="0 0 16 15" fill="none" xmlns="http://www.w3.org/2000/svg">
<path fill-rule="evenodd" clip-rule="evenodd" d="M1.34709 0.994728C1.52974 0.875808 1.74299 0.8125 1.96094 0.8125H14.0428C14.2608 0.8125 14.474 0.875807 14.6567 0.994728C14.8393 1.11365 14.9835 1.28306 15.0716 1.48238C15.1598 1.68169 15.1882 1.90233 15.1533 2.11747C15.1185 2.33261 15.0219 2.53299 14.8752 2.69426L10.2519 7.77997L10.2519 11.7615C10.2519 11.9467 10.2062 12.129 10.1188 12.2923C10.0314 12.4556 9.90502 12.5948 9.75092 12.6975L7.50092 14.1975C7.33149 14.3105 7.13459 14.3753 6.9312 14.3851C6.72781 14.395 6.52557 14.3494 6.34604 14.2533C6.16651 14.1573 6.01642 14.0143 5.91178 13.8396C5.80714 13.6649 5.75188 13.4651 5.75188 13.2615L5.75188 7.77997L1.12851 2.69426C0.981899 2.53299 0.885292 2.33261 0.850426 2.11747C0.815561 1.90233 0.843939 1.68169 0.93211 1.48238C1.02028 1.28306 1.16445 1.11365 1.34709 0.994728ZM14.0428 1.9375H1.96094L6.58431 7.02321C6.77257 7.23029 6.87688 7.5001 6.87688 7.77997V13.2615L9.12688 11.7615V7.77997C9.12688 7.5001 9.23119 7.23029 9.41945 7.02321L14.0428 1.9375Z" fill="#434242"/>
</svg>
