<svg width="20" height="20" viewBox="0 0 20 20" fill="none" xmlns="http://www.w3.org/2000/svg">
<path d="M19.4138 3.51586H14.9579C15.158 3.17083 15.2732 2.77068 15.2732 2.34393C15.2732 1.04938 14.214 -0.0550967 12.9037 0.00212896C11.9914 0.0416596 11.2658 0.4822 10.8603 1.2425C10.8604 1.24246 10.8603 1.24254 10.8603 1.2425L9.99984 2.85642L9.13935 1.24254C8.73357 0.481575 8.00726 0.0410737 7.09407 0.00224615C5.788 -0.0536514 4.72653 1.04645 4.72653 2.34405C4.72653 2.7708 4.84172 3.17087 5.04184 3.5159H0.585928C0.26234 3.5159 0 3.77824 0 4.10183V7.6174C0 7.94099 0.26234 8.20333 0.585928 8.20333H1.17186V19.4141C1.17186 19.7377 1.4342 20 1.75778 20H18.2419C18.5655 20 18.8278 19.7377 18.8278 19.4141V8.20333H19.4138C19.7373 8.20333 19.9997 7.94099 19.9997 7.6174V4.10183C19.9997 3.77816 19.7373 3.51586 19.4138 3.51586ZM12.9544 1.17285C13.5871 1.14586 14.1013 1.70566 14.1013 2.34389C14.1013 2.99009 13.5756 3.51582 12.9295 3.51582H10.9763L11.8943 1.79398C11.8943 1.79405 11.8944 1.79394 11.8943 1.79398C12.1026 1.4034 12.4593 1.19434 12.9544 1.17285ZM5.89835 2.34401C5.89835 1.7039 6.41443 1.1461 7.04423 1.17301C7.53988 1.1941 7.89687 1.40297 8.10526 1.79386L9.02341 3.51586H7.0702C6.42404 3.51586 5.89835 2.99017 5.89835 2.34401ZM17.656 18.8281H2.34371V8.20329H17.656V18.8281ZM18.8278 7.03143H1.17186V4.68772H18.8278V7.03143Z" fill="#434242"/>
</svg>
