<svg width="16" height="12" viewBox="0 0 16 12" fill="none" xmlns="http://www.w3.org/2000/svg">
<path d="M15.16 8.80701L8.46875 4.92948V4.64098C8.46875 4.31198 8.6565 4.00594 8.95875 3.84232C9.63972 3.47373 10.0445 2.76376 10.0151 1.98951C9.97534 0.942914 9.1245 0.0919137 8.07812 0.0521949C7.52444 0.0309449 7.00009 0.23082 6.60166 0.614351C6.20297 0.998164 5.98341 1.51429 5.98341 2.0676C5.98341 2.32648 6.19328 2.53635 6.45216 2.53635C6.71103 2.53635 6.92091 2.32648 6.92091 2.0676C6.92091 1.77141 7.03844 1.49519 7.25184 1.28973C7.465 1.08454 7.74547 0.977445 8.04253 0.989007C8.60206 1.01026 9.057 1.46535 9.07828 2.02507C9.09403 2.43998 8.87722 2.82038 8.5125 3.01785C7.90725 3.34548 7.53125 3.96741 7.53125 4.64098V4.92948L0.840031 8.80701C0.321875 9.10729 0 9.66591 0 10.2649C0 11.1939 0.755687 11.9497 1.68456 11.9497H14.3154C15.2443 11.9497 16 11.1938 16 10.2648C16 9.66588 15.6781 9.10729 15.16 8.80701ZM14.3154 11.0122H1.68456C1.27262 11.0122 0.9375 10.6769 0.9375 10.2648C0.9375 9.99913 1.08025 9.75135 1.31009 9.6182L8 5.74141L14.6899 9.6182C14.9197 9.75138 15.0625 9.99913 15.0625 10.2649C15.0625 10.6769 14.7274 11.0122 14.3154 11.0122Z" fill="#434242"/>
</svg>
