<svg width="18" height="22" viewBox="0 0 18 22" fill="none" xmlns="http://www.w3.org/2000/svg">
<path fill-rule="evenodd" clip-rule="evenodd" d="M1.20312 20.5449C1.20312 19.9926 1.65084 19.5449 2.20312 19.5449H15.5758C16.1281 19.5449 16.5758 19.9926 16.5758 20.5449C16.5758 21.0972 16.1281 21.5449 15.5758 21.5449H2.20312C1.65084 21.5449 1.20312 21.0972 1.20312 20.5449Z" fill="#434242"/>
<path fill-rule="evenodd" clip-rule="evenodd" d="M8.88576 6.68652C7.79682 6.68652 6.91406 7.56928 6.91406 8.65822C6.91406 9.74716 7.79682 10.6299 8.88576 10.6299C9.9747 10.6299 10.8575 9.74716 10.8575 8.65822C10.8575 7.56928 9.9747 6.68652 8.88576 6.68652ZM4.91406 8.65822C4.91406 6.46471 6.69225 4.68652 8.88576 4.68652C11.0793 4.68652 12.8575 6.46471 12.8575 8.65822C12.8575 10.8517 11.0793 12.6299 8.88576 12.6299C6.69225 12.6299 4.91406 10.8517 4.91406 8.65822Z" fill="#434242"/>
<path fill-rule="evenodd" clip-rule="evenodd" d="M8.88628 2.22888C7.18114 2.22888 5.54583 2.90625 4.34011 4.11196C3.1344 5.31768 2.45703 6.95299 2.45703 8.65813C2.45703 11.6412 4.12619 14.3826 5.92626 16.4527C6.81408 17.4737 7.70447 18.2976 8.37311 18.8659C8.5648 19.0289 8.73766 19.1703 8.88628 19.2888C9.03489 19.1703 9.20775 19.0289 9.39945 18.8659C10.0681 18.2976 10.9585 17.4737 11.8463 16.4527C13.6464 14.3826 15.3155 11.6412 15.3155 8.65813C15.3155 6.95299 14.6382 5.31768 13.4324 4.11196C12.2267 2.90625 10.5914 2.22888 8.88628 2.22888ZM8.88628 20.5449C8.31282 21.3642 8.31254 21.364 8.31225 21.3638L8.30952 21.3618L8.30352 21.3576L8.2836 21.3434C8.26686 21.3315 8.24325 21.3145 8.21323 21.2926C8.15321 21.2488 8.06751 21.1852 7.95981 21.1029C7.74451 20.9384 7.44068 20.6983 7.07781 20.3898C6.35347 19.7741 5.38654 18.88 4.41705 17.7651C2.5025 15.5633 0.457031 12.3613 0.457031 8.65813C0.457031 6.42255 1.34511 4.27854 2.9259 2.69775C4.50669 1.11696 6.6507 0.228882 8.88628 0.228882C11.1219 0.228882 13.2659 1.11696 14.8467 2.69775C16.4274 4.27854 17.3155 6.42255 17.3155 8.65813C17.3155 12.3613 15.2701 15.5633 13.3555 17.7651C12.386 18.88 11.4191 19.7741 10.6947 20.3898C10.3319 20.6983 10.028 20.9384 9.81274 21.1029C9.70504 21.1852 9.61934 21.2488 9.55932 21.2926C9.52931 21.3145 9.5057 21.3315 9.48895 21.3434L9.46903 21.3576L9.46304 21.3618L9.46105 21.3632C9.46075 21.3634 9.45974 21.3642 8.88628 20.5449ZM8.88628 20.5449L9.45974 21.3642C9.11542 21.6052 8.65657 21.6048 8.31225 21.3638L8.88628 20.5449Z" fill="#434242"/>
</svg>
