<svg width="24" height="24" viewBox="0 0 24 24" fill="none" xmlns="http://www.w3.org/2000/svg">
<path d="M12 0C5.37281 0 0 5.37281 0 12C0 18.6272 5.37281 24 12 24C18.6272 24 24 18.6272 24 12C24 5.37281 18.6272 0 12 0ZM8.07239 1.95042C6.90361 3.22163 5.97802 5.05003 5.412 7.20005H2.33198C3.52402 4.81598 5.57198 2.93081 8.07239 1.95042ZM1.2 12C1.2 10.7344 1.43798 9.52842 1.84041 8.4H5.14481C4.92881 9.53878 4.8 10.742 4.8 12C4.8 13.258 4.92881 14.4612 5.14439 15.6H1.84041C1.43798 14.4716 1.2 13.2656 1.2 12ZM2.33198 16.8H5.412C5.97839 18.95 6.90361 20.7784 8.07239 22.0496C5.57198 21.0692 3.52402 19.184 2.33198 16.8ZM11.4 22.7432C9.34641 22.3564 7.56202 20.0132 6.6488 16.8H11.4V22.7432ZM11.4 15.6H6.36281C6.132 14.4672 6 13.2564 6 12C6 10.7436 6.132 9.53278 6.36281 8.4H11.4V15.6ZM11.4 7.2H6.6488C7.56202 3.98681 9.34641 1.64358 11.4 1.25681V7.2ZM21.668 7.2H18.588C18.0216 5.04998 17.0964 3.22158 15.9276 1.95038C18.428 2.93081 20.476 4.81598 21.668 7.2ZM12.6 1.25681C14.6536 1.64363 16.438 3.98681 17.3512 7.2H12.6V1.25681ZM12.6 8.4H17.6372C17.868 9.53278 18 10.7436 18 12C18 13.2564 17.868 14.4672 17.6372 15.6H12.6V8.4ZM12.6 22.7432V16.8H17.3512C16.438 20.0132 14.6536 22.3564 12.6 22.7432ZM15.9276 22.0496C17.0964 20.778 18.0216 18.95 18.588 16.8H21.668C20.476 19.184 18.428 21.0692 15.9276 22.0496ZM18.8552 15.6C19.0712 14.4612 19.2 13.258 19.2 12C19.2 10.742 19.0712 9.53878 18.8556 8.4H22.16C22.562 9.52842 22.8 10.7344 22.8 12C22.8 13.2656 22.562 14.4716 22.1596 15.6H18.8552Z" fill="#434242"/>
</svg>
