<svg width="19" height="19" viewBox="0 0 19 19" fill="none" xmlns="http://www.w3.org/2000/svg">
<path d="M18.0055 12.9641L16.094 11.398C14.8487 10.3778 12.9155 10.4743 11.7794 11.6104L11.7036 11.6862C11.5131 11.8767 11.2027 11.8752 11.0149 11.6874L7.32165 7.99411C7.1352 7.80766 7.13151 7.50777 7.31118 7.31736C7.31446 7.3139 7.31778 7.31049 7.32115 7.30707L7.31118 7.31736C7.31446 7.3139 7.31778 7.31049 7.32115 7.30707C8.45096 6.16643 8.55902 4.22436 7.56933 2.9731L6.01896 1.01305C5.02243 -0.246852 3.29048 -0.344174 2.15453 0.79178L1.86975 1.07655C-0.147925 3.09423 -0.623382 6.73083 0.89007 9.14872C0.89007 9.14872 1.78099 11.2149 4.78759 14.2215C7.7942 17.2281 9.86035 18.119 9.86035 18.119C12.3008 19.5956 15.9136 19.1582 17.9308 17.141L18.202 16.8698C19.3389 15.733 19.2501 13.9836 18.0055 12.9641ZM16.8287 15.4965L16.5575 15.7677C15.1725 17.1526 12.5417 17.4713 10.8657 16.4573L10.7517 16.3883L10.6293 16.3355C10.4791 16.2708 10.1026 16.0666 9.53329 15.6848C8.52224 15.0066 7.38688 14.0742 6.16089 12.8482C4.9349 11.6222 4.00242 10.4868 3.3243 9.47579C2.94248 8.90651 2.73828 8.52997 2.67355 8.37975L2.61492 8.24378L2.53635 8.11829C1.51738 6.4904 1.8459 3.84714 3.2431 2.44994L3.52787 2.16517C3.84364 1.84939 4.22119 1.87088 4.49576 2.21802L6.04613 4.17807C6.42841 4.66135 6.37893 5.50275 5.93775 5.94397C4.99922 6.89348 5.00386 8.42309 5.94836 9.36754L9.64163 13.0608C10.5884 14.0076 12.1285 14.0081 13.077 13.0597L13.1529 12.9838C13.5835 12.5532 14.3906 12.5133 14.8632 12.9005L16.7748 14.4666C17.1316 14.7589 17.1525 15.1726 16.8287 15.4965Z" fill="black"/>
</svg>
