<svg width="12" height="14" viewBox="0 0 12 14" fill="none" xmlns="http://www.w3.org/2000/svg">
<path d="M11.0417 6.51972L0.918323 0.333021C0.833055 0.280912 0.735444 0.252458 0.635531 0.250587C0.535619 0.248716 0.437012 0.273495 0.349853 0.322376C0.262694 0.371257 0.19013 0.442475 0.139626 0.528703C0.0891216 0.614931 0.0625 0.713058 0.0625 0.812988V13.1864C0.0625 13.2863 0.0891216 13.3844 0.139626 13.4707C0.19013 13.5569 0.262694 13.6281 0.349853 13.677C0.437012 13.7259 0.535619 13.7507 0.635531 13.7488C0.735444 13.7469 0.833055 13.7185 0.918323 13.6664L11.0417 7.47966C11.1239 7.42941 11.1918 7.35888 11.239 7.27484C11.2861 7.19079 11.3109 7.09605 11.3109 6.99969C11.3109 6.90333 11.2861 6.80859 11.239 6.72454C11.1918 6.6405 11.1239 6.56997 11.0417 6.51972Z" fill="white"/>
</svg>
