<svg width="20" height="18" viewBox="0 0 20 18" fill="none" xmlns="http://www.w3.org/2000/svg">
<path d="M11.2696 0.269531C7.03805 0.269531 3.50293 3.29629 2.70844 7.29684L1.04898 5.22234L0 6.0618L2.68629 9.41965C2.81723 9.58285 3.01199 9.67148 3.21078 9.67148C3.31219 9.67148 3.41492 9.64863 3.51098 9.60098L7.54039 7.58625L6.93934 6.38481L3.9784 7.86496C4.52773 4.32981 7.5827 1.61266 11.2696 1.61266C15.3427 1.61266 18.6569 4.92684 18.6569 8.99992C18.6569 13.073 15.3427 16.3872 11.2696 16.3872V17.7303C16.0834 17.7303 20 13.8137 20 8.99992C20 4.18613 16.0834 0.269531 11.2696 0.269531Z" fill="#434242"/>
</svg>
