<svg width="16" height="20" viewBox="0 0 16 20" fill="none" xmlns="http://www.w3.org/2000/svg">
<path d="M15.8483 16.4929L14.9552 5.23836C14.8995 4.51328 14.2863 3.94527 13.5591 3.94527H11.7949V3.86598C11.7949 1.73426 10.0607 0 7.92894 0C5.79722 0 4.06297 1.73426 4.06297 3.86598V3.94527H2.29883C1.5716 3.94527 0.958356 4.51324 0.902888 5.23684L0.0094501 16.4944C-0.0596905 17.3958 0.253005 18.2932 0.867302 18.9564C1.4816 19.6196 2.35242 20 3.25644 20H12.6014C13.5054 20 14.3762 19.6196 14.9906 18.9564C15.6049 18.2931 15.9175 17.3958 15.8483 16.4929ZM5.23445 3.86598C5.23445 2.38023 6.44324 1.17148 7.92894 1.17148C9.41465 1.17148 10.6234 2.38027 10.6234 3.86598V3.94527H5.23445V3.86598ZM14.1311 18.1604C13.7319 18.5912 13.1887 18.8285 12.6014 18.8285H3.25648C2.66914 18.8285 2.12593 18.5912 1.72679 18.1604C1.32769 17.7295 1.13261 17.1696 1.17746 16.5855L2.07082 5.32793C2.07988 5.20949 2.18004 5.11676 2.29883 5.11676H4.06297V6.55953C4.06297 6.88301 4.32523 7.14527 4.64871 7.14527C4.97218 7.14527 5.23445 6.88301 5.23445 6.55953V5.11676H10.6234V6.55953C10.6234 6.88301 10.8857 7.14527 11.2092 7.14527C11.5327 7.14527 11.7949 6.88301 11.7949 6.55953V5.11676H13.5591C13.6778 5.11676 13.778 5.20953 13.7872 5.32949L14.6804 16.584C14.7253 17.1696 14.5302 17.7294 14.1311 18.1604Z" fill="#434242"/>
<path d="M10.6408 9.93279C10.4121 9.70404 10.0412 9.70404 9.8125 9.93279L7.19703 12.5483L6.19133 11.5426C5.96262 11.3138 5.59172 11.3138 5.36297 11.5426C5.13422 11.7713 5.13422 12.1422 5.36297 12.3709L6.78285 13.7908C6.89723 13.9052 7.04715 13.9624 7.19699 13.9624C7.34684 13.9624 7.4968 13.9052 7.61113 13.7908L10.6407 10.7612C10.8695 10.5324 10.8695 10.1615 10.6408 9.93279Z" fill="#434242"/>
</svg>
