<svg width="14" height="14" viewBox="0 0 14 14" fill="none" xmlns="http://www.w3.org/2000/svg">
<g clip-path="url(#clip0)">
<path d="M13.91 5.07011L11.9538 2.55937C11.4781 1.94888 10.7614 1.59879 9.98742 1.59879H8.69706C8.51821 1.59879 8.35841 1.71051 8.297 1.87853C8.0988 2.42069 7.57758 2.78496 7.00001 2.78496C6.42244 2.78496 5.90128 2.42069 5.70302 1.87853C5.64162 1.71051 5.48181 1.59879 5.30296 1.59879H4.01254C3.23866 1.59879 2.52191 1.94888 2.04621 2.55943L0.0899824 5.07011C0.00496862 5.17922 -0.0218074 5.32278 0.0182349 5.45519C0.0582772 5.58761 0.160087 5.69235 0.29135 5.73604L3.00291 6.63942V11.9753C3.00291 12.2105 3.19362 12.4012 3.42889 12.4012H10.5711C10.8064 12.4012 10.9971 12.2105 10.9971 11.9753V6.63942L13.7087 5.73604C13.8399 5.69235 13.9417 5.58761 13.9818 5.45519C14.0218 5.32278 13.9951 5.17922 13.91 5.07011ZM10.9971 5.74145V5.11526C10.9971 4.88 10.8064 4.68928 10.5711 4.68928C10.3359 4.68928 10.1452 4.88 10.1452 5.11526V11.5493H3.85481V5.11526C3.85481 4.88 3.66409 4.68928 3.42883 4.68928C3.19356 4.68928 3.00284 4.88 3.00284 5.11526V5.74145L1.13242 5.1183L2.71823 3.08309C3.03138 2.6812 3.50307 2.45075 4.01254 2.45075H5.02766C5.41074 3.17078 6.16935 3.63686 6.99995 3.63686C7.83055 3.63686 8.58917 3.17072 8.97231 2.45075H9.98742C10.4968 2.45075 10.9686 2.6812 11.2817 3.08303L12.8676 5.1183L10.9971 5.74145Z" fill="#4A5B4C"/>
</g>
<defs>
<clipPath id="clip0">
<rect width="14" height="14" fill="white"/>
</clipPath>
</defs>
</svg>
