<svg width="22" height="22" viewBox="0 0 22 22" fill="none" xmlns="http://www.w3.org/2000/svg">
<path d="M10.3867 7.61433C10.3867 7.27531 10.6615 7.00049 11.0006 7.00049C11.3396 7.00049 11.6144 7.27531 11.6144 7.61433C11.6144 7.95334 11.3396 8.22816 11.0006 8.22816C10.6615 8.22816 10.3867 7.95334 10.3867 7.61433Z" fill="#434242"/>
<path d="M10.3867 10.7467C10.3867 10.4076 10.6615 10.1328 11.0006 10.1328C11.3396 10.1328 11.6144 10.4076 11.6144 10.7467C11.6144 11.0857 11.3396 11.3605 11.0006 11.3605C10.6615 11.3605 10.3867 11.0857 10.3867 10.7467Z" fill="#434242"/>
<path d="M21.4758 3.27422C21.4758 2.8227 21.1732 2.42719 20.7375 2.30905L14.279 0.558272C14.1938 0.535151 14.1058 0.523438 14.0174 0.523438H7.98185C7.89348 0.523438 7.8055 0.535151 7.72021 0.558272L1.2618 2.30905C0.826005 2.42719 0.523438 2.8227 0.523438 3.27422V7.50335C0.523438 8.05563 0.971153 8.50335 1.52344 8.50335H3.2474C3.79968 8.50335 4.2474 8.95106 4.2474 9.50335V20.4758C4.2474 21.0281 4.69511 21.4758 5.2474 21.4758H16.7519C17.3041 21.4758 17.7519 21.0281 17.7519 20.4758V9.50335C17.7519 8.95106 18.1996 8.50335 18.7519 8.50335H20.4758C21.0281 8.50335 21.4758 8.05563 21.4758 7.50335V3.27422ZM12.0861 1.75112C12.7399 1.75112 13.2059 2.39548 12.7467 2.86087C12.3012 3.31239 11.6825 3.59263 10.9996 3.59263C10.3167 3.59263 9.69805 3.31239 9.25256 2.86087C8.79337 2.39548 9.25932 1.75112 9.91311 1.75112H12.0861ZM20.2481 6.27567C20.2481 6.82795 19.8004 7.27567 19.2481 7.27567H18.7519C18.1996 7.27567 17.7519 6.82795 17.7519 6.27567V5.43415C17.7519 5.09514 17.477 4.82031 17.138 4.82031C16.799 4.82031 16.5242 5.09514 16.5242 5.43415V19.2481C16.5242 19.8004 16.0765 20.2481 15.5242 20.2481H6.47507C5.92279 20.2481 5.47507 19.8004 5.47507 19.2481V5.43415C5.47507 5.09514 5.20025 4.82031 4.86123 4.82031C4.52222 4.82031 4.2474 5.09514 4.2474 5.43415V6.27567C4.2474 6.82796 3.79968 7.27567 3.2474 7.27567H2.75112C2.19883 7.27567 1.75112 6.82795 1.75112 6.27567V4.21339C1.75112 3.76187 2.05368 3.36636 2.48947 3.24822L6.38367 2.19256C6.93626 2.04276 7.49197 2.39806 7.7669 2.90026C8.39271 4.04338 9.60708 4.82031 10.9996 4.82031C12.3922 4.82031 13.6065 4.04338 14.2324 2.90026C14.5073 2.39806 15.063 2.04276 15.6156 2.19256L19.5098 3.24822C19.9456 3.36636 20.2481 3.76187 20.2481 4.21339V6.27567Z" fill="#434242"/>
<path d="M19.5098 3.24822L19.5752 3.00693L19.5752 3.00693L19.5098 3.24822ZM14.2324 2.90026L14.0131 2.78021L14.0131 2.78021L14.2324 2.90026ZM15.6156 2.19256L15.5502 2.43385L15.5502 2.43385L15.6156 2.19256ZM6.38367 2.19256L6.31826 1.95127L6.38367 2.19256ZM7.7669 2.90026L7.54761 3.02031L7.7669 2.90026ZM9.25256 2.86087L9.0746 3.03646L9.25256 2.86087ZM12.7467 2.86087L12.5687 2.68529L12.5687 2.68529L12.7467 2.86087ZM1.2618 2.30905L1.32721 2.55034L1.2618 2.30905ZM7.72021 0.558272L7.6548 0.316981L7.72021 0.558272ZM14.279 0.558272L14.2136 0.799564L14.279 0.558272ZM2.48947 3.24822L2.42406 3.00693L2.48947 3.24822ZM20.7375 2.30905L20.8029 2.06776L20.8029 2.06776L20.7375 2.30905ZM11.0006 7.97816C10.7996 7.97816 10.6367 7.81527 10.6367 7.61433H10.1367C10.1367 8.09141 10.5235 8.47816 11.0006 8.47816V7.97816ZM11.3644 7.61433C11.3644 7.81527 11.2015 7.97816 11.0006 7.97816V8.47816C11.4776 8.47816 11.8644 8.09141 11.8644 7.61433H11.3644ZM11.0006 7.25049C11.2015 7.25049 11.3644 7.41339 11.3644 7.61433H11.8644C11.8644 7.13724 11.4776 6.75049 11.0006 6.75049V7.25049ZM11.0006 6.75049C10.5235 6.75049 10.1367 7.13724 10.1367 7.61433H10.6367C10.6367 7.41339 10.7996 7.25049 11.0006 7.25049V6.75049ZM11.0006 11.1105C10.7996 11.1105 10.6367 10.9476 10.6367 10.7467H10.1367C10.1367 11.2237 10.5235 11.6105 11.0006 11.6105V11.1105ZM11.3644 10.7467C11.3644 10.9476 11.2015 11.1105 11.0006 11.1105V11.6105C11.4776 11.6105 11.8644 11.2237 11.8644 10.7467H11.3644ZM11.0006 10.3828C11.2015 10.3828 11.3644 10.5457 11.3644 10.7467H11.8644C11.8644 10.2696 11.4776 9.88281 11.0006 9.88281V10.3828ZM11.0006 9.88281C10.5235 9.88281 10.1367 10.2696 10.1367 10.7467H10.6367C10.6367 10.5457 10.7996 10.3828 11.0006 10.3828V9.88281ZM20.8029 2.06776L14.3445 0.316981L14.2136 0.799564L20.672 2.55034L20.8029 2.06776ZM14.0174 0.273438H7.98185V0.773438H14.0174V0.273438ZM7.6548 0.316981L1.19638 2.06776L1.32721 2.55034L7.78562 0.799564L7.6548 0.316981ZM0.273438 3.27422V7.50335H0.773438V3.27422H0.273438ZM1.52344 8.75335H3.2474V8.25335H1.52344V8.75335ZM3.9974 9.50335V20.4758H4.4974V9.50335H3.9974ZM5.2474 21.7258H16.7519V21.2258H5.2474V21.7258ZM18.0019 20.4758V9.50335H17.5019V20.4758H18.0019ZM18.7519 8.75335H20.4758V8.25335H18.7519V8.75335ZM21.7258 7.50335V3.27422H21.2258V7.50335H21.7258ZM12.5687 2.68529C12.1681 3.09131 11.6127 3.34263 10.9996 3.34263V3.84263C11.7523 3.84263 12.4343 3.53347 12.9247 3.03646L12.5687 2.68529ZM10.9996 3.34263C10.3865 3.34263 9.83113 3.09131 9.43051 2.68529L9.0746 3.03646C9.56498 3.53347 10.2469 3.84263 10.9996 3.84263V3.34263ZM9.91311 2.00112H12.0861V1.50112H9.91311V2.00112ZM19.2481 7.02567H18.7519V7.52567H19.2481V7.02567ZM18.0019 6.27567V5.43415H17.5019V6.27567H18.0019ZM16.2742 5.43415V19.2481H16.7742V5.43415H16.2742ZM15.5242 19.9981H6.47507V20.4981H15.5242V19.9981ZM5.72507 19.2481V5.43415H5.22507V19.2481H5.72507ZM3.9974 5.43415V6.27567H4.4974V5.43415H3.9974ZM3.2474 7.02567H2.75112V7.52567H3.2474V7.02567ZM2.00112 6.27567V4.21339H1.50112V6.27567H2.00112ZM2.55488 3.48951L6.44908 2.43385L6.31826 1.95127L2.42406 3.00693L2.55488 3.48951ZM7.54761 3.02031C8.21537 4.24007 9.51182 5.07031 10.9996 5.07031V4.57031C9.70235 4.57031 8.57005 3.8467 7.98619 2.78021L7.54761 3.02031ZM10.9996 5.07031C12.4874 5.07031 13.7839 4.24007 14.4516 3.02032L14.0131 2.78021C13.4292 3.8467 12.2969 4.57031 10.9996 4.57031V5.07031ZM15.5502 2.43385L19.4444 3.48951L19.5752 3.00693L15.681 1.95127L15.5502 2.43385ZM19.9981 4.21339V6.27567H20.4981V4.21339H19.9981ZM19.4444 3.48951C19.7712 3.57812 19.9981 3.87475 19.9981 4.21339H20.4981C20.4981 3.64899 20.1199 3.1546 19.5752 3.00693L19.4444 3.48951ZM14.4516 3.02032C14.6925 2.58039 15.147 2.32455 15.5502 2.43385L15.681 1.95127C14.979 1.76096 14.3221 2.21572 14.0131 2.78021L14.4516 3.02032ZM6.44908 2.43385C6.85226 2.32455 7.30678 2.58039 7.54761 3.02031L7.98619 2.78021C7.67716 2.21572 7.02027 1.76096 6.31826 1.95127L6.44908 2.43385ZM2.75112 7.02567C2.3369 7.02567 2.00112 6.68988 2.00112 6.27567H1.50112C1.50112 6.96603 2.06076 7.52567 2.75112 7.52567V7.02567ZM3.9974 6.27567C3.9974 6.68988 3.66161 7.02567 3.2474 7.02567V7.52567C3.93775 7.52567 4.4974 6.96603 4.4974 6.27567H3.9974ZM4.86123 4.57031C4.38415 4.57031 3.9974 4.95707 3.9974 5.43415H4.4974C4.4974 5.23321 4.66029 5.07031 4.86123 5.07031V4.57031ZM5.72507 5.43415C5.72507 4.95707 5.33832 4.57031 4.86123 4.57031V5.07031C5.06218 5.07031 5.22507 5.23321 5.22507 5.43415H5.72507ZM6.47507 19.9981C6.06086 19.9981 5.72507 19.6624 5.72507 19.2481H5.22507C5.22507 19.9385 5.78472 20.4981 6.47507 20.4981V19.9981ZM16.2742 19.2481C16.2742 19.6624 15.9384 19.9981 15.5242 19.9981V20.4981C16.2145 20.4981 16.7742 19.9385 16.7742 19.2481H16.2742ZM17.138 4.57031C16.6609 4.57031 16.2742 4.95707 16.2742 5.43415H16.7742C16.7742 5.23321 16.9371 5.07031 17.138 5.07031V4.57031ZM18.0019 5.43415C18.0019 4.95707 17.6151 4.57031 17.138 4.57031V5.07031C17.339 5.07031 17.5019 5.23321 17.5019 5.43415H18.0019ZM18.7519 7.02567C18.3376 7.02567 18.0019 6.68988 18.0019 6.27567H17.5019C17.5019 6.96603 18.0615 7.52567 18.7519 7.52567V7.02567ZM19.2481 7.52567C19.9385 7.52567 20.4981 6.96603 20.4981 6.27567H19.9981C19.9981 6.68988 19.6624 7.02567 19.2481 7.02567V7.52567ZM9.43051 2.68529C9.3524 2.60612 9.32445 2.53176 9.31921 2.47C9.31381 2.40629 9.33103 2.33631 9.37582 2.26656C9.46761 2.12364 9.66554 2.00112 9.91311 2.00112V1.50112C9.50689 1.50112 9.14495 1.70077 8.95511 1.99638C8.85909 2.1459 8.80506 2.32427 8.821 2.51226C8.83711 2.70222 8.92311 2.88293 9.0746 3.03646L9.43051 2.68529ZM12.9247 3.03646C13.0761 2.88293 13.1621 2.70222 13.1783 2.51226C13.1942 2.32427 13.1402 2.1459 13.0441 1.99638C12.8543 1.70077 12.4924 1.50112 12.0861 1.50112V2.00112C12.3337 2.00112 12.5316 2.12364 12.6234 2.26656C12.6682 2.33631 12.6854 2.40629 12.68 2.47C12.6748 2.53176 12.6469 2.60612 12.5687 2.68529L12.9247 3.03646ZM20.4758 8.75335C21.1662 8.75335 21.7258 8.1937 21.7258 7.50335H21.2258C21.2258 7.91756 20.89 8.25335 20.4758 8.25335V8.75335ZM18.0019 9.50335C18.0019 9.08914 18.3376 8.75335 18.7519 8.75335V8.25335C18.0615 8.25335 17.5019 8.81299 17.5019 9.50335H18.0019ZM16.7519 21.7258C17.4422 21.7258 18.0019 21.1662 18.0019 20.4758H17.5019C17.5019 20.89 17.1661 21.2258 16.7519 21.2258V21.7258ZM3.9974 20.4758C3.9974 21.1662 4.55704 21.7258 5.2474 21.7258V21.2258C4.83318 21.2258 4.4974 20.89 4.4974 20.4758H3.9974ZM3.2474 8.75335C3.66161 8.75335 3.9974 9.08914 3.9974 9.50335H4.4974C4.4974 8.81299 3.93775 8.25335 3.2474 8.25335V8.75335ZM0.273438 7.50335C0.273438 8.1937 0.833082 8.75335 1.52344 8.75335V8.25335C1.10922 8.25335 0.773438 7.91756 0.773438 7.50335H0.273438ZM1.19638 2.06776C0.651647 2.21543 0.273438 2.70982 0.273438 3.27422H0.773438C0.773438 2.93558 1.00036 2.63894 1.32721 2.55034L1.19638 2.06776ZM7.98185 0.273438C7.87139 0.273438 7.76141 0.28808 7.6548 0.316981L7.78562 0.799564C7.84959 0.782223 7.91557 0.773438 7.98185 0.773438V0.273438ZM14.3445 0.316981C14.2378 0.288079 14.1279 0.273438 14.0174 0.273438V0.773438C14.0837 0.773438 14.1497 0.782223 14.2136 0.799564L14.3445 0.316981ZM2.00112 4.21339C2.00112 3.87475 2.22804 3.57812 2.55488 3.48951L2.42406 3.00693C1.87932 3.1546 1.50112 3.64899 1.50112 4.21339H2.00112ZM20.672 2.55034C20.9989 2.63894 21.2258 2.93558 21.2258 3.27422H21.7258C21.7258 2.70982 21.3476 2.21543 20.8029 2.06776L20.672 2.55034Z" fill="#434242"/>
</svg>
