<svg width="16" height="16" viewBox="0 0 16 16" fill="none" xmlns="http://www.w3.org/2000/svg">
<path d="M15.7483 2.56602L12.2483 0.566001C12.1733 0.523 12.0873 0.5 12.0003 0.5H4.00021C3.9132 0.5 3.8282 0.523 3.7522 0.566001L0.252175 2.56602C0.0521734 2.68002 -0.0438274 2.91602 0.0191731 3.13703L1.01918 6.63706C1.09418 6.89706 1.36218 7.04906 1.62119 6.98506L3.0002 6.64106V15.0001C3.0002 15.2761 3.2242 15.5001 3.5002 15.5001H12.5003C12.7763 15.5001 13.0003 15.2761 13.0003 15.0001V6.64106L14.3783 6.98506C14.6363 7.05206 14.9063 6.89706 14.9803 6.63706L15.9803 3.13703C16.0443 2.91602 15.9483 2.68002 15.7483 2.56602ZM14.1523 5.89705L12.6213 5.51505C12.4723 5.47805 12.3133 5.51205 12.1923 5.60605C12.0713 5.70105 12.0003 5.84605 12.0003 6.00005V14.5001H4.00021V6.00005C4.00021 5.84605 3.9302 5.70205 3.8082 5.60705C3.6862 5.51205 3.5272 5.47705 3.3792 5.51605L1.84819 5.89805L1.08818 3.24003L4.13321 1.50001H11.8673L14.9113 3.23903L14.1523 5.89705Z" fill="white"/>
<path d="M9.99959 0.500103C9.72359 0.500103 9.49959 0.724105 9.49959 1.00011C9.49959 1.82712 8.82658 2.50012 7.99957 2.50012C7.17256 2.50012 6.49955 1.82712 6.49955 1.00011C6.49955 0.724105 6.27555 0.500103 5.99954 0.500103C5.72354 0.500103 5.49954 0.724105 5.49954 1.00011C5.49954 2.37812 6.62155 3.50013 7.99957 3.50013C9.37859 3.50013 10.4996 2.37812 10.4996 1.00011C10.4996 0.724105 10.2756 0.500103 9.99959 0.500103Z" fill="white"/>
</svg>
