<svg width="43" height="27" viewBox="0 0 43 27" fill="none" xmlns="http://www.w3.org/2000/svg">
<path d="M42.9581 2.78422C43.2959 3.76783 42.1944 6.02705 39.6538 9.56188C39.3013 10.0537 38.824 10.7069 38.2219 11.5214C37.6345 12.3052 37.2306 12.8585 37.0103 13.1812C36.7901 13.504 36.5661 13.8844 36.3385 14.3224C36.1108 14.7604 36.0227 15.0831 36.0741 15.2906C36.1255 15.4981 36.221 15.7632 36.3605 16.086C36.5 16.4087 36.7387 16.7391 37.0764 17.0773C37.4142 17.4154 37.8327 17.8226 38.3321 18.2991C38.3908 18.3298 38.4275 18.3606 38.4422 18.3913C40.5129 20.4046 41.9154 22.1029 42.6497 23.4861C42.6937 23.5629 42.7415 23.659 42.7929 23.7742C42.8443 23.8895 42.8957 24.0931 42.9471 24.3851C42.9985 24.6772 42.9948 24.9384 42.9361 25.169C42.8773 25.3995 42.6937 25.6108 42.3853 25.8029C42.0769 25.995 41.6437 26.0911 41.0857 26.0911L35.4463 26.1833C35.0938 26.2601 34.6826 26.2217 34.2127 26.068C33.7427 25.9143 33.3609 25.7453 33.0672 25.5609L32.6266 25.2842C32.1861 24.9615 31.6721 24.4697 31.0846 23.8088C30.4972 23.1479 29.9942 22.5524 29.5757 22.0222C29.1571 21.492 28.7092 21.0463 28.2319 20.6851C27.7546 20.3239 27.3397 20.2048 26.9873 20.3278C26.9432 20.3431 26.8845 20.37 26.811 20.4085C26.7376 20.4469 26.6128 20.5583 26.4366 20.7427C26.2603 20.9272 26.1025 21.1538 25.9629 21.4228C25.8234 21.6918 25.6986 22.0913 25.5885 22.6216C25.4783 23.1518 25.4306 23.7473 25.4453 24.4082C25.4453 24.6387 25.4196 24.85 25.3682 25.0422C25.3168 25.2343 25.2617 25.3764 25.203 25.4686L25.1148 25.5839C24.8505 25.8759 24.4613 26.045 23.9473 26.0911H21.414C20.3713 26.1526 19.2993 26.0258 18.1978 25.7107C17.0964 25.3956 16.1308 24.9884 15.301 24.4889C14.4713 23.9894 13.715 23.4822 13.0321 22.9674C12.3492 22.4525 11.8315 22.0107 11.4791 21.6418L10.9284 21.0885C10.7815 20.9348 10.5796 20.7043 10.3226 20.3969C10.0656 20.0895 9.54054 19.3903 8.74751 18.2991C7.95448 17.2079 7.17613 16.0475 6.41247 14.818C5.6488 13.5885 4.7493 11.9671 3.71395 9.95379C2.6786 7.94047 1.72035 5.85031 0.839203 3.6833C0.751089 3.4374 0.707031 3.22992 0.707031 3.06086C0.707031 2.8918 0.72906 2.76885 0.773117 2.69201L0.861232 2.55369C1.08152 2.26168 1.50006 2.11567 2.11687 2.11567L8.15273 2.06957C8.32896 2.10031 8.49785 2.15025 8.65939 2.21941C8.82094 2.28857 8.93843 2.35389 9.01185 2.41537L9.122 2.48453C9.35697 2.65358 9.5332 2.89949 9.65069 3.22223C9.9444 3.99067 10.2822 4.78601 10.664 5.60825C11.0458 6.43048 11.3469 7.05676 11.5672 7.48709L11.9196 8.15563C12.3455 9.07776 12.7567 9.87694 13.1533 10.5532C13.5498 11.2294 13.9059 11.7558 14.2216 12.1323C14.5374 12.5089 14.8421 12.8047 15.1358 13.0199C15.4296 13.235 15.6792 13.3426 15.8848 13.3426C16.0904 13.3426 16.2887 13.3042 16.4796 13.2274C16.509 13.212 16.5457 13.1736 16.5897 13.1121C16.6338 13.0506 16.7219 12.8816 16.8541 12.6049C16.9862 12.3283 17.0854 11.9671 17.1515 11.5214C17.2175 11.0757 17.2873 10.4533 17.3607 9.6541C17.4342 8.85492 17.4342 7.89436 17.3607 6.77244C17.3314 6.15768 17.2653 5.59672 17.1625 5.08955C17.0597 4.58237 16.9569 4.22889 16.8541 4.0291L16.7219 3.75246C16.3548 3.22992 15.7306 2.89949 14.8495 2.76117C14.6585 2.73043 14.6953 2.546 14.9596 2.20789C15.1946 1.91588 15.4736 1.68535 15.7967 1.51629C16.575 1.1167 18.33 0.932272 21.0616 0.96301C22.2658 0.978379 23.2571 1.07828 24.0354 1.2627C24.3291 1.33955 24.5751 1.44329 24.7734 1.57392C24.9717 1.70456 25.1222 1.88898 25.225 2.1272C25.3278 2.36542 25.4049 2.61132 25.4563 2.86491C25.5077 3.11849 25.5334 3.46813 25.5334 3.91383C25.5334 4.35953 25.526 4.78217 25.5114 5.18176C25.4967 5.58135 25.4783 6.1231 25.4563 6.80702C25.4343 7.49093 25.4232 8.1249 25.4232 8.70891C25.4232 8.87797 25.4159 9.20072 25.4012 9.67715C25.3865 10.1536 25.3829 10.5224 25.3902 10.7837C25.3975 11.045 25.4232 11.3562 25.4673 11.7174C25.5114 12.0785 25.5958 12.3782 25.7206 12.6164C25.8455 12.8547 26.0107 13.0429 26.2163 13.1812C26.3338 13.212 26.4586 13.2427 26.5908 13.2735C26.7229 13.3042 26.9138 13.2197 27.1635 13.0199C27.4132 12.8201 27.6922 12.555 28.0006 12.2245C28.309 11.8941 28.6908 11.3792 29.1461 10.68C29.6014 9.98068 30.1007 9.15461 30.644 8.20174C31.5252 6.60338 32.3109 4.87438 33.0011 3.01475C33.0599 2.86106 33.1333 2.72659 33.2214 2.61132C33.3095 2.49605 33.3903 2.41537 33.4637 2.36926L33.5518 2.3001L33.662 2.24247L33.9483 2.17331L34.3889 2.16178L40.7332 2.11567C41.3059 2.03883 41.7759 2.05804 42.143 2.17331C42.5102 2.28857 42.7378 2.41537 42.8259 2.55369L42.9581 2.78422Z" fill="#4D7198"/>
</svg>
