<svg width="14" height="14" viewBox="0 0 14 14" fill="none" xmlns="http://www.w3.org/2000/svg">
<path d="M12.1356 0H1.88483C1.21542 0 0.670898 0.543457 0.670898 1.21156V12.7884C0.670898 13.4565 1.21542 14 1.88483 14H12.1356C12.805 14 13.3495 13.4565 13.3495 12.7884V1.21156C13.3495 0.543457 12.805 0 12.1356 0V0ZM1.48019 1.21156C1.48019 0.988861 1.66169 0.807709 1.88483 0.807709H12.1356C12.3587 0.807709 12.5402 0.988861 12.5402 1.21156V2.82687H1.48019V1.21156ZM12.5402 12.7884C12.5402 13.0111 12.3587 13.1923 12.1356 13.1923H1.88483C1.66169 13.1923 1.48019 13.0111 1.48019 12.7884V3.63458H12.5402V12.7884Z" fill="#4A5B4C"/>
<path d="M9.70786 1.41342H8.89879C8.67533 1.41342 8.49414 1.59425 8.49414 1.81728C8.49414 2.0403 8.67533 2.22113 8.89879 2.22113H9.70786C9.93132 2.22113 10.1125 2.0403 10.1125 1.81728C10.1125 1.59425 9.93132 1.41342 9.70786 1.41342Z" fill="#4A5B4C"/>
<path d="M11.8661 1.41342H11.057C10.8335 1.41342 10.6523 1.59425 10.6523 1.81728C10.6523 2.0403 10.8335 2.22113 11.057 2.22113H11.8661C12.0895 2.22113 12.2706 2.0403 12.2706 1.81728C12.2706 1.59425 12.0895 1.41342 11.8661 1.41342Z" fill="#4A5B4C"/>
<path d="M3.09961 8.41344C3.09961 10.566 4.85421 12.3173 7.011 12.3173C9.16789 12.3173 10.9225 10.566 10.9225 8.41344C10.9225 8.30865 10.9182 8.20483 10.9101 8.10219C10.9101 8.10165 10.91 8.10112 10.91 8.10069C10.7498 6.09381 9.06237 4.50958 7.011 4.50958C4.95973 4.50958 3.27234 6.09381 3.11213 8.10069C3.11202 8.10112 3.11202 8.10165 3.11202 8.10219C3.10389 8.20483 3.09961 8.30865 3.09961 8.41344ZM7.011 11.5096C5.36994 11.5096 4.02266 10.2312 3.91586 8.6199C4.00318 8.65579 4.08056 8.70322 4.16885 8.75737C4.40751 8.90402 4.7047 9.08656 5.25757 9.08656C5.81044 9.08656 6.10753 8.90413 6.34629 8.75748C6.54417 8.63593 6.68705 8.54813 7.01089 8.54813C7.33473 8.54813 7.47771 8.63593 7.67559 8.75748C7.91436 8.90402 8.21155 9.08656 8.76442 9.08656C9.31729 9.08656 9.61449 8.90413 9.85325 8.75748C9.94154 8.70322 10.0189 8.65579 10.1061 8.6199C9.99944 10.2312 8.65216 11.5096 7.011 11.5096ZM7.011 5.31729C8.50821 5.31729 9.7611 6.38135 10.0504 7.79158C9.77694 7.85631 9.58955 7.97102 9.42913 8.0695C9.23124 8.19106 9.08826 8.27885 8.76442 8.27885C8.44058 8.27885 8.2976 8.19106 8.09972 8.0695C7.86095 7.92285 7.56386 7.74031 7.01089 7.74031C6.45802 7.74031 6.16093 7.92285 5.92217 8.0695C5.72429 8.19106 5.58131 8.27885 5.25757 8.27885C4.93373 8.27885 4.79075 8.19106 4.59287 8.0695C4.43244 7.97092 4.24516 7.8562 3.97172 7.79158C4.261 6.38135 5.51389 5.31729 7.011 5.31729Z" fill="#4A5B4C"/>
</svg>
