<svg width="40" height="29" viewBox="0 0 40 29" fill="none" xmlns="http://www.w3.org/2000/svg">
<path d="M38.7739 5.01221C38.553 4.17741 38.1198 3.41613 37.5177 2.80455C36.9156 2.19297 36.1658 1.75254 35.3432 1.52734C32.3153 0.701172 20.1777 0.701172 20.1777 0.701172C20.1777 0.701172 8.04016 0.701172 5.01227 1.52295C4.18932 1.74742 3.43908 2.1876 2.83689 2.7993C2.23469 3.41099 1.80174 4.17266 1.58152 5.00781C0.771484 8.08398 0.771484 14.5 0.771484 14.5C0.771484 14.5 0.771484 20.916 1.58152 23.9878C2.02769 25.6841 3.34454 27.02 5.01227 27.4727C8.04016 28.2988 20.1777 28.2988 20.1777 28.2988C20.1777 28.2988 32.3153 28.2988 35.3432 27.4727C37.0152 27.02 38.3278 25.6841 38.7739 23.9878C39.584 20.916 39.584 14.5 39.584 14.5C39.584 14.5 39.584 8.08398 38.7739 5.01221ZM16.3225 20.3887V8.61133L26.3721 14.4561L16.3225 20.3887Z" fill="#C4302B"/>
</svg>
